<?xml version="1.0" encoding="UTF-8" standalone="no"?>
<!DOCTYPE svg  PUBLIC '-//W3C//DTD SVG 1.1//EN'  'http://www.w3.org/Graphics/SVG/1.1/DTD/svg11.dtd'>
<svg xmlns="http://www.w3.org/2000/svg">
<defs>
<font id="BlairITCStd-Regular" horiz-adv-x="500">
<font-face underline-position="6" font-weight="500" descent="-200" panose-1="2 0 5 5 3 0 0 2 0 4" units-per-em="1000" unicode-range="U+000D-FB02" bbox="-245 -248 1538 964" x-height="615" underline-thickness="109" font-family="BlairITCStd" ascent="800" cap-height="724"/>
<missing-glyph d="M411 48l-161 242l-162 -242h323zM440 575l-162 -242l162 -243v485zM60 575v-484l40 61l80 120l41 61zM88 618l162 -243l161 243h-323zM12 0v665h475v-665h-475z"/>
<glyph glyph-name="f_i" horiz-adv-x="1099" unicode="fi" d="M744 506h-519v-132h361v-109h-361v-265h-120v615h639v-109zM994 0h-120v615h120v-615z"/>
<glyph glyph-name="f_l" horiz-adv-x="1494" unicode="fl" d="M744 506h-519v-132h361v-109h-361v-265h-120v615h639v-109zM1469 0h-595v615h120v-506h475v-109z"/>
<glyph glyph-name=".notdef" d="M411 48l-161 242l-162 -242h323zM440 575l-162 -242l162 -243v485zM60 575v-484l40 61l80 120l41 61zM88 618l162 -243l161 243h-323zM12 0v665h475v-665h-475z"/>
<glyph glyph-name=".null" horiz-adv-x="0"/>
<glyph glyph-name="nonmarkingreturn" horiz-adv-x="333"/>
<glyph glyph-name="CR" horiz-adv-x="300" unicode=""/>
<glyph glyph-name="space" horiz-adv-x="300" unicode=" "/>
<glyph glyph-name="exclam" horiz-adv-x="357" unicode="!" d="M251 0h-155v109h155v-109zM249 669l-28 -478h-96l-28 478v55h152v-55z"/>
<glyph glyph-name="quotedbl" horiz-adv-x="300" unicode='&quot;' d="M256 701v-271h-68v271h68zM112 701v-271h-68v271h68z"/>
<glyph glyph-name="numbersign" horiz-adv-x="762" unicode="#" d="M462 502h-149l-19 -115h149zM682 502h-121l-18 -115h105v-93h-121l-29 -178h-100l30 178h-149l-30 -178h-100l29 178h-103v93h120l18 115h-105v93h121l21 129h100l-20 -129h148l21 129h100l-21 -129h104v-93z"/>
<glyph glyph-name="dollar" horiz-adv-x="949" unicode="$" d="M517 94q106 7 161 39t55 84q0 102 -216 108v-231zM397 443v183q-194 -8 -194 -94q0 -80 194 -89zM517 435q176 -9 261 -60t85 -150q0 -106 -88 -166.5t-258 -69.5v-55h-120v57q-221 18 -345 118l65 87q127 -81 280 -98v233q-163 5 -241.5 49.5t-78.5 135.5q0 94 82 150 t238 66v41h120v-43q201 -28 303 -103l-73 -80q-106 56 -230 74v-186z"/>
<glyph glyph-name="percent" horiz-adv-x="1144" unicode="%" d="M373 542q0 41 -27.5 69t-67.5 28q-41 0 -68.5 -28t-27.5 -69t28 -69t68 -28t67.5 28t27.5 69zM961 183q0 41 -27 69t-67 28q-41 0 -69 -28t-28 -69t28 -69t69 -28q40 0 67 28t27 69zM480 542q0 -81 -60 -139q-59 -57 -142 -57q-84 0 -142 56q-60 58 -60 140t60 140 q59 57 142 57t142 -57q60 -60 60 -140zM964 724l-647 -734h-137l648 734h136zM1068 183q0 -82 -60 -140q-59 -57 -141 -57q-83 0 -142 57q-61 58 -61 140q0 81 61 140q59 57 142 57q82 0 141 -57q60 -58 60 -140z"/>
<glyph glyph-name="ampersand" horiz-adv-x="942" unicode="&amp;" d="M533 141q-93 84 -172 189q-199 -31 -199 -130q0 -48 49 -78.5t134 -30.5q83 0 188 50zM411 444q139 17 139 114q0 32 -23.5 54.5t-59.5 22.5q-41 0 -67 -26t-26 -67t37 -98zM881 -3q-140 7 -263 72q-120 -82 -285 -82q-130 0 -211 62t-81 155q0 158 252 218 q-37 59 -37 120t39 111q65 84 176 84q87 0 141.5 -50.5t54.5 -131.5q0 -69 -48 -120t-140 -78q66 -84 145 -151q61 48 104 172h123q-40 -131 -140 -234q81 -36 170 -36v-111z"/>
<glyph glyph-name="quotesingle" horiz-adv-x="155" unicode="&apos;" d="M112 701v-271h-68v271h68z"/>
<glyph glyph-name="parenleft" horiz-adv-x="432" unicode="(" d="M373 -141q-75 8 -125.5 39.5t-88.5 91.5q-87 140 -87 334q0 196 87 336q39 62 89 93.5t125 39.5v-56h-2q-77 0 -128.5 -111.5t-51.5 -301.5q0 -192 50 -300.5t131 -108.5h1v-56z"/>
<glyph glyph-name="parenright" horiz-adv-x="436" unicode=")" d="M58 793q75 -8 125 -40t88 -93q88 -143 88 -336q0 -194 -87 -335q-38 -60 -88.5 -91t-125.5 -39v56h1q80 0 130.5 109t50.5 300q0 189 -51.5 301t-128.5 112h-2v56z"/>
<glyph glyph-name="asterisk" horiz-adv-x="576" unicode="*" d="M514 519l-170 -33l110 -134l-81 -58l-90 152l-89 -152l-81 58l110 134l-170 33l31 95l159 -61l-19 171h119l-19 -171l159 61z"/>
<glyph glyph-name="plus" horiz-adv-x="932" unicode="+" d="M763 256h-258v-247h-80v247h-256v80h256v247h80v-247h258v-80z"/>
<glyph glyph-name="comma" horiz-adv-x="355" unicode="," d="M255 -28q0 -109 -125 -109h-23v59q75 2 75 42v36h-82v109h155v-137z"/>
<glyph glyph-name="hyphen" horiz-adv-x="531" unicode="-" d="M471 265h-411v109h411v-109z"/>
<glyph glyph-name="period" horiz-adv-x="355" unicode="." d="M255 0h-155v109h155v-109z"/>
<glyph glyph-name="slash" horiz-adv-x="542" unicode="/" d="M571 724l-463 -734h-137l464 734h136z"/>
<glyph glyph-name="zero" horiz-adv-x="932" unicode="0" d="M725 362q0 116 -72.5 189.5t-186.5 73.5t-186.5 -73.5t-72.5 -189.5q0 -115 73 -189t186 -74t186 74t73 189zM846 362q0 -154 -113 -264q-111 -108 -267 -108q-157 0 -267 108q-113 110 -113 264q0 152 114 263q110 107 266 107q158 0 267 -107q113 -110 113 -263z"/>
<glyph glyph-name="one" horiz-adv-x="383" unicode="1" d="M264 0h-120v604l-116 -50v104q66 21 117 66h119v-724z"/>
<glyph glyph-name="two" horiz-adv-x="838" unicode="2" d="M766 0h-735q6 137 79.5 224.5t221.5 134.5q32 10 85.5 24t88.5 25t60 25q52 30 52 78q0 51 -51.5 82.5t-143.5 31.5q-156 0 -283 -101l-76 80q166 129 361 129q143 0 233 -65t90 -165q0 -75 -46.5 -122.5t-144.5 -74.5q-26 -7 -98.5 -24.5t-110.5 -30.5 q-130 -45 -175 -142h593v-109z"/>
<glyph glyph-name="three" horiz-adv-x="861" unicode="3" d="M624 381q71 -24 109 -70.5t38 -107.5q0 -100 -99.5 -157t-283.5 -57q-121 0 -210 34.5t-163 112.5l80 80q130 -118 306 -118q119 0 181 31.5t62 89.5q0 108 -288 108q-37 0 -57 -1v98h110q98 0 150 28t52 79q0 94 -197 94q-150 0 -277 -81l-69 74q166 115 345 115 q152 0 237 -53.5t85 -143.5q0 -105 -111 -155z"/>
<glyph glyph-name="four" horiz-adv-x="811" unicode="4" d="M502 251v346l-349 -346h349zM788 142h-166v-142h-120v142h-477v109l479 473h118v-473h166v-109z"/>
<glyph glyph-name="five" horiz-adv-x="884" unicode="5" d="M182 416q124 51 249 51q168 0 265.5 -65t97.5 -169q0 -108 -96 -176t-256 -68q-258 0 -402 147l94 64q115 -106 306 -106q107 0 169 38.5t62 100.5q0 60 -65.5 96.5t-184.5 36.5q-136 0 -262 -65l-102 56l113 367h570v-109h-489z"/>
<glyph glyph-name="six" horiz-adv-x="914" unicode="6" d="M227 220q65 -121 261 -121q101 0 160.5 34.5t59.5 88.5q0 57 -60 94.5t-157 37.5q-79 0 -148 -35t-116 -99zM200 330q143 125 295 125q149 0 242.5 -65t93.5 -165q0 -109 -89.5 -173t-250.5 -64q-197 0 -306.5 98.5t-109.5 271.5q0 123 69 217q57 76 144.5 118t193.5 42 q200 0 318 -132l-88 -70q-82 93 -230 93q-91 0 -158 -41q-62 -37 -95.5 -92.5t-33.5 -117.5q0 -18 5 -45z"/>
<glyph glyph-name="seven" horiz-adv-x="765" unicode="7" d="M741 615l-472 -615h-138l471 615h-587v109h726v-109z"/>
<glyph glyph-name="eight" horiz-adv-x="893" unicode="8" d="M708 212q0 115 -261 115q-262 0 -262 -115q0 -55 66.5 -84.5t195.5 -29.5t195 29.5t66 84.5zM663 529q0 96 -216 96q-217 0 -217 -96q0 -49 56 -77t161 -28t160.5 28t55.5 77zM655 380q86 -24 132 -71t46 -107q0 -100 -100 -157t-286 -57t-286.5 57t-100.5 157 q0 60 46 107t132 71q-62 20 -95 59.5t-33 90.5q0 94 87.5 148t247.5 54q161 0 249.5 -54t88.5 -148q0 -51 -33 -90.5t-95 -59.5z"/>
<glyph glyph-name="nine" horiz-adv-x="890" unicode="9" d="M642 508q-73 119 -267 119q-100 0 -157.5 -34.5t-57.5 -90.5q0 -59 56 -94.5t155 -35.5q85 0 155 35.5t116 100.5zM669 396q-53 -61 -132 -94.5t-171 -33.5q-151 0 -239.5 61t-88.5 163q0 110 92.5 175.5t254.5 65.5q189 0 302 -103t113 -274q0 -163 -120 -269 q-112 -100 -281 -100q-200 0 -325 123l81 78q77 -91 236 -91q64 0 121 22q74 29 118.5 93.5t44.5 143.5q0 24 -6 40z"/>
<glyph glyph-name="colon" horiz-adv-x="355" unicode=":" d="M255 0h-155v109h155v-109zM255 364h-155v109h155v-109z"/>
<glyph glyph-name="semicolon" horiz-adv-x="360" unicode=";" d="M255 -28q0 -109 -125 -109h-23v59q75 2 75 42v36h-82v109h155v-137zM255 364h-155v109h155v-109z"/>
<glyph glyph-name="less" horiz-adv-x="932" unicode="&lt;" d="M764 3l-597 265v62l597 263v-86l-482 -207v-3l482 -208v-86z"/>
<glyph glyph-name="equal" horiz-adv-x="932" unicode="=" d="M763 144h-594v80h594v-80zM763 370h-594v80h594v-80z"/>
<glyph glyph-name="greater" horiz-adv-x="932" unicode="&gt;" d="M764 267l-597 -264v86l482 208v2l-482 208v87l597 -266v-61z"/>
<glyph glyph-name="question" horiz-adv-x="727" unicode="?" d="M361 0h-155v109h155v-109zM22 590q135 139 332 139q153 0 240 -58t87 -156q0 -72 -35.5 -111t-116.5 -62q-14 -4 -38 -10t-37.5 -10t-30.5 -9.5t-29 -11.5q-60 -29 -64 -110h-97q-1 8 -1 24q0 75 38 120t122 75q13 5 38.5 13.5l36 12t28.5 11t25 13.5t16.5 15t12.5 20 t3 24q0 50 -50.5 77t-147.5 27q-159 0 -249 -98z"/>
<glyph glyph-name="at" horiz-adv-x="830" unicode="@" d="M470 384q0 34 -10.5 49t-34.5 15q-41 0 -74 -53t-33 -129q0 -56 45 -56q42 0 74.5 50.5t32.5 123.5zM403 -19q-151 0 -245 94q-95 93 -95 239q0 81 31 147q43 95 136 152t207 57q98 0 184 -49q69 -40 108 -107.5t39 -146.5q0 -103 -65.5 -171.5t-163.5 -68.5 q-77 0 -94 50q-45 -30 -89 -30q-54 0 -86.5 36.5t-32.5 96.5q0 111 81 184q48 43 112 43q34 0 65 -18l8 14h82q-73 -232 -73 -272q0 -45 45 -45q57 0 90 47.5t33 130.5q0 107 -66.5 171.5t-176.5 64.5q-128 0 -206 -77t-78 -203q0 -270 282 -270h6v-69h-38z"/>
<glyph glyph-name="A" horiz-adv-x="947" unicode="A" d="M658 271l-184 350l-185 -350h369zM932 0h-131l-84 162h-487l-84 -162h-131l383 724h151z"/>
<glyph glyph-name="B" horiz-adv-x="1057" unicode="B" d="M699 109q77 0 113.5 23.5t36.5 74.5q0 105 -131 105h-477v-203h458zM708 421q50 0 83.5 28.5t33.5 69.5q0 44 -30 70t-82 26h-472v-194h467zM848 373q124 -42 124 -183q0 -93 -69.5 -141.5t-204.5 -48.5h-577v724h585q110 0 173 -54t63 -144q0 -99 -94 -153z"/>
<glyph glyph-name="C" horiz-adv-x="1046" unicode="C" d="M966 559l-109 -39q-110 117 -308 117q-150 0 -244.5 -77t-94.5 -196q0 -123 93.5 -198.5t252.5 -75.5q192 0 302 119l103 -57q-78 -91 -176.5 -131.5t-235.5 -40.5q-193 0 -319 96q-145 109 -145 288q0 175 147 286q127 97 317 97q272 0 417 -188z"/>
<glyph glyph-name="D" horiz-adv-x="1065" unicode="D" d="M612 109q108 0 177.5 69.5t69.5 178.5q0 116 -74.5 187t-195.5 71h-348v-506h371zM579 724q189 0 299.5 -100.5t110.5 -269.5q0 -156 -117 -258q-108 -96 -270 -96h-481v724h458z"/>
<glyph glyph-name="E" horiz-adv-x="939" unicode="E" d="M879 0h-758v724h730v-109h-610v-185h424v-109h-424v-212h638v-109z"/>
<glyph glyph-name="F" horiz-adv-x="871" unicode="F" d="M851 615h-610v-185h424v-109h-424v-321h-120v724h730v-109z"/>
<glyph glyph-name="G" horiz-adv-x="1092" unicode="G" d="M1009 374q0 -177 -126.5 -286t-335.5 -109q-191 0 -319 97q-145 110 -145 287q0 175 147 286q128 98 327 98q239 0 392 -175l-112 -56q-113 121 -290 121q-137 0 -231 -68q-108 -79 -108 -206q0 -122 93 -198t246 -76q117 0 197 48.5t115 138.5h-337v109h487v-11z"/>
<glyph glyph-name="H" horiz-adv-x="1062" unicode="H" d="M941 0h-120v321h-580v-321h-120v724h120v-294h580v294h120v-724z"/>
<glyph glyph-name="I" horiz-adv-x="362" unicode="I" d="M241 0h-120v724h120v-724z"/>
<glyph glyph-name="J" horiz-adv-x="788" unicode="J" d="M680 232q0 -123 -83.5 -188.5t-244.5 -65.5q-146 0 -225.5 64t-85.5 186h122q8 -76 54 -108.5t142 -32.5q107 0 154 33t47 112v492h120v-492z"/>
<glyph glyph-name="K" horiz-adv-x="961" unicode="K" d="M961 0h-154l-348 381l-218 -161v-220h-120v724h120v-375l507 375h173l-370 -274z"/>
<glyph glyph-name="L" horiz-adv-x="820" unicode="L" d="M800 0h-679v724h120v-615h559v-109z"/>
<glyph glyph-name="M" horiz-adv-x="1237" unicode="M" d="M1116 0h-120v592h-3l-376 -472l-373 472h-3v-592h-120v724h149l348 -438l349 438h149v-724z"/>
<glyph glyph-name="N" horiz-adv-x="1064" unicode="N" d="M943 0h-148l-554 594v-594h-120v724h149l553 -594v594h120v-724z"/>
<glyph glyph-name="O" horiz-adv-x="1096" unicode="O" d="M888 363q0 127 -108 206q-94 68 -231 68q-151 0 -246 -77.5t-95 -196.5q0 -123 93 -198.5t248 -75.5q154 0 246.5 76t92.5 198zM1013 363q0 -178 -146 -288q-128 -96 -318 -96q-192 0 -320 97q-146 110 -146 287q0 174 148 286q130 98 318 98t317 -98q147 -112 147 -286z "/>
<glyph glyph-name="P" horiz-adv-x="953" unicode="P" d="M674 385q139 0 139 111q0 119 -147 119h-425v-230h433zM695 724q111 0 176 -61.5t65 -164.5q0 -108 -67.5 -165t-196.5 -57h-431v-276h-120v724h574z"/>
<glyph glyph-name="Q" horiz-adv-x="1096" unicode="Q" d="M712 120q176 71 176 244q0 127 -109 207q-94 68 -230 68q-138 0 -232 -68q-109 -79 -109 -207q0 -122 93.5 -198t247.5 -76q11 0 43 2l-78 87l114 34zM681 -5q-67 -15 -132 -15q-190 0 -319 97q-147 111 -147 287q0 174 148 286q130 98 318 98t317 -98q147 -111 147 -286 q0 -223 -221 -332l90 -99l-112 -36z"/>
<glyph glyph-name="R" horiz-adv-x="1008" unicode="R" d="M674 385q67 0 103 29t36 82q0 119 -150 119h-422v-230h433zM942 0h-139l-196 276h-366v-276h-120v724h571q114 0 179 -61.5t65 -166.5q0 -92 -51 -146t-137 -68z"/>
<glyph glyph-name="S" horiz-adv-x="939" unicode="S" d="M755 554q-161 82 -328 82q-111 0 -170 -26t-59 -72q0 -47 63 -70q35 -12 86.5 -17t127 -9.5t131.5 -11.5q136 -17 201 -66.5t65 -139.5q0 -115 -102 -178t-293 -63q-277 0 -431 122l66 87q170 -104 366 -104q127 0 195.5 34t68.5 94q0 35 -15.5 56t-65 33t-83.5 15.5 t-129 9.5q-28 2 -43 3q-179 12 -257 51t-78 138q0 102 95.5 161t269.5 59q234 0 392 -107z"/>
<glyph glyph-name="T" horiz-adv-x="852" unicode="T" d="M832 615h-346v-615h-120v615h-346v109h812v-109z"/>
<glyph glyph-name="U" horiz-adv-x="1052" unicode="U" d="M936 234q0 -113 -111 -184.5t-298 -71.5t-299 72t-112 184v490h120v-461q0 -85 74.5 -130t216.5 -45t215.5 45t73.5 130v461h120v-490z"/>
<glyph glyph-name="V" horiz-adv-x="928" unicode="V" d="M923 724l-390 -724h-138l-390 724h134l325 -604l325 604h134z"/>
<glyph glyph-name="W" horiz-adv-x="1186" unicode="W" d="M1166 724l-237 -724h-155l-181 605l-181 -605h-153l-239 724h134l182 -606l181 606h152l181 -606l182 606h134z"/>
<glyph glyph-name="X" horiz-adv-x="921" unicode="X" d="M908 0h-156l-292 292l-291 -292h-156l369 367l-356 357h156l279 -282l278 282h156l-356 -357z"/>
<glyph glyph-name="Y" horiz-adv-x="922" unicode="Y" d="M917 724l-396 -438v-286h-120v286l-396 438h149l308 -338l306 338h149z"/>
<glyph glyph-name="Z" horiz-adv-x="887" unicode="Z" d="M837 0h-787v109l598 506h-589v109h751v-109l-598 -506h625v-109z"/>
<glyph glyph-name="bracketleft" horiz-adv-x="450" unicode="[" d="M413 -141h-283v934h283v-56h-163v-822h163v-56z"/>
<glyph glyph-name="backslash" horiz-adv-x="542" unicode="\" d="M571 -10h-137l-463 734h136z"/>
<glyph glyph-name="bracketright" horiz-adv-x="443" unicode="]" d="M321 -141h-283v56h163v822h-163v56h283v-934z"/>
<glyph glyph-name="asciicircum" horiz-adv-x="932" unicode="^" d="M767 319h-101l-198 299h-3l-200 -299h-100l263 393h77z"/>
<glyph glyph-name="underscore" d="M500 -166v-70h-500v70h500z" unicode="_"/>
<glyph glyph-name="grave" d="M313 669h-61l-124 166h116z" unicode="`"/>
<glyph glyph-name="a" horiz-adv-x="845" unicode="a" d="M569 241l-146 272l-147 -272h293zM832 0h-132l-71 132h-413l-71 -132h-132l335 615h149z"/>
<glyph glyph-name="b" horiz-adv-x="916" unicode="b" d="M605 109q57 0 88.5 19t31.5 51q0 36 -28.5 56.5t-81.5 20.5h-390v-147h380zM613 365q42 0 66.5 19.5t24.5 52.5q0 32 -23 50.5t-64 18.5h-392v-141h388zM748 318q98 -50 98 -152q0 -81 -61.5 -123.5t-179.5 -42.5h-500v615h506q98 0 154 -47t56 -124q0 -78 -73 -126z"/>
<glyph glyph-name="c" horiz-adv-x="904" unicode="c" d="M841 467l-110 -38q-96 98 -251 98q-131 0 -209 -60.5t-78 -156.5q0 -99 78 -159t211 -60q154 0 251 101l103 -55q-72 -80 -157 -116.5t-200 -36.5q-184 0 -297.5 91.5t-113.5 234.5q0 148 129 243q113 82 275 82q229 0 369 -168z"/>
<glyph glyph-name="d" horiz-adv-x="920" unicode="d" d="M531 109q88 0 144.5 55t56.5 140q0 91 -60 146.5t-160 55.5h-287v-397h306zM503 615q162 0 260 -85t98 -218q0 -68 -24.5 -121t-78.5 -111q-29 -32 -95 -56t-140 -24h-418v615h398z"/>
<glyph glyph-name="e" horiz-adv-x="817" unicode="e" d="M767 0h-662v615h639v-109h-519v-132h361v-109h-361v-156h542v-109z"/>
<glyph glyph-name="f" horiz-adv-x="769" unicode="f" d="M744 506h-519v-132h361v-109h-361v-265h-120v615h639v-109z"/>
<glyph glyph-name="g" horiz-adv-x="941" unicode="g" d="M873 337v-19q0 -150 -109.5 -243t-291.5 -93q-163 0 -275 81q-129 95 -129 246q0 149 129 244q113 83 282 83q204 0 338 -143l-113 -56q-94 90 -232 90q-122 0 -201 -62t-79 -156q0 -97 77 -158t203 -61q189 0 251 138h-277v109h427z"/>
<glyph glyph-name="h" horiz-adv-x="925" unicode="h" d="M820 0h-120v265h-475v-265h-120v615h120v-241h475v241h120v-615z"/>
<glyph glyph-name="i" horiz-adv-x="330" unicode="i" d="M225 0h-120v615h120v-615z"/>
<glyph glyph-name="j" horiz-adv-x="700" unicode="j" d="M595 200q0 -106 -73 -162t-214 -56q-260 0 -274 224h121q7 -64 43.5 -90.5t114.5 -26.5q86 0 124 25t38 86v415h120v-415z"/>
<glyph glyph-name="k" horiz-adv-x="849" unicode="k" d="M848 0h-155l-293 312l-175 -126v-186h-120v615h120v-301l419 301h177l-328 -236z"/>
<glyph glyph-name="l" horiz-adv-x="725" unicode="l" d="M700 0h-595v615h120v-506h475v-109z"/>
<glyph glyph-name="m" horiz-adv-x="1073" unicode="m" d="M968 0h-120v510l-3 -4l-309 -419l-308 423l-3 -4v-506h-120v615h180l251 -348l252 348h180v-615z"/>
<glyph glyph-name="n" horiz-adv-x="927" unicode="n" d="M822 0h-179l-418 513v-513h-120v615h179l418 -513v513h120v-615z"/>
<glyph glyph-name="o" horiz-adv-x="945" unicode="o" d="M752 309q0 95 -78 156.5t-201 61.5q-124 0 -202.5 -62t-78.5 -156q0 -98 77 -158.5t204 -60.5q126 0 202.5 60.5t76.5 158.5zM877 309q0 -151 -129 -246q-110 -81 -275 -81q-164 0 -276 81q-129 95 -129 246q0 150 130 244q114 83 275 83q160 0 274 -83q130 -95 130 -244 z"/>
<glyph glyph-name="p" horiz-adv-x="836" unicode="p" d="M584 335q109 0 109 83q0 46 -28 67t-88 21h-352v-171h359zM602 615q98 0 156 -53t58 -142q0 -93 -60.5 -143.5t-173.5 -50.5h-357v-226h-120v615h497z"/>
<glyph glyph-name="q" horiz-adv-x="945" unicode="q" d="M614 116q138 59 138 193q0 95 -78 157t-201 62q-124 0 -202.5 -62t-78.5 -157q0 -98 76.5 -158.5t204.5 -60.5h18l-68 72l115 34zM582 -7q-60 -11 -109 -11q-163 0 -276 82q-129 94 -129 245t129 245q112 83 276 83q163 0 275 -83q129 -95 129 -245q0 -185 -182 -278 l77 -84l-114 -35z"/>
<glyph glyph-name="r" horiz-adv-x="894" unicode="r" d="M584 335q109 0 109 83q0 46 -28 67t-88 21h-352v-171h359zM829 0h-138l-161 226h-305v-226h-120v615h497q98 0 156 -53t58 -142q0 -74 -39 -122.5t-114 -64.5z"/>
<glyph glyph-name="s" horiz-adv-x="814" unicode="s" d="M662 463q-120 63 -261 63q-205 0 -205 -73q0 -14 6 -24t20.5 -17t30 -11t43.5 -7t52 -5t63.5 -5t71.5 -6q151 -15 218.5 -56t67.5 -129q0 -99 -88.5 -153t-256.5 -54q-237 0 -379 108l65 85q127 -89 312 -89q104 0 161 26.5t57 70.5q0 50 -70 69q-30 8 -71.5 11.5 t-102.5 6t-104 6.5q-114 11 -168 49t-54 111q0 88 86.5 139.5t242.5 51.5q208 0 337 -90z"/>
<glyph glyph-name="t" horiz-adv-x="758" unicode="t" d="M733 506h-294v-506h-120v506h-294v109h708v-109z"/>
<glyph glyph-name="u" horiz-adv-x="911" unicode="u" d="M813 202q0 -97 -97 -158.5t-260 -61.5q-164 0 -261 61.5t-97 158.5v413h120v-389q0 -66 60.5 -101t177.5 -35q116 0 176.5 35t60.5 101v389h120v-413z"/>
<glyph glyph-name="v" horiz-adv-x="828" unicode="v" d="M823 615l-340 -615h-138l-340 615h133l276 -511l276 511h133z"/>
<glyph glyph-name="w" horiz-adv-x="1040" unicode="w" d="M1020 615l-209 -615h-144l-147 514l-147 -514h-144l-209 615h133l148 -511l147 511h144l147 -511l148 511h133z"/>
<glyph glyph-name="x" horiz-adv-x="818" unicode="x" d="M805 0h-151l-245 241l-245 -241h-151l320 312l-309 303h151l234 -232l234 232h151l-309 -303z"/>
<glyph glyph-name="y" horiz-adv-x="828" unicode="y" d="M823 615l-350 -373v-242h-120v242l-348 373h146l263 -280l263 280h146z"/>
<glyph glyph-name="z" horiz-adv-x="767" unicode="z" d="M727 0h-687v109l492 397h-485v109h657v-109l-493 -397h516v-109z"/>
<glyph glyph-name="braceleft" horiz-adv-x="413" unicode="{" d="M363 -141q-137 0 -185.5 37.5t-48.5 147.5q0 23 1 61.5t1 54.5q0 90 -40 125q-18 16 -69 41q109 48 109 126v183q0 87 46.5 122.5t153.5 35.5h32v-56q-58 0 -85 -28.5t-27 -87.5q0 -8 0.5 -36t0.5 -47q0 -167 -56 -210v-2q57 -43 57 -205q0 -14 -1 -47t-1 -51 q0 -108 109 -108h3v-56z"/>
<glyph glyph-name="bar" horiz-adv-x="625" unicode="|" d="M364 -235h-103v1000h103v-1000z"/>
<glyph glyph-name="braceright" horiz-adv-x="405" unicode="}" d="M380 326q-65 -27 -89.5 -67.5t-24.5 -117.5q0 -17 3.5 -49.5t3.5 -47.5q0 -108 -48 -146.5t-180 -38.5h-6v56h3q57 0 83 27t26 87q0 13 -1 43t-1 47q0 166 57 207v2q-56 41 -56 209q0 8 0.5 37t0.5 50q0 113 -109 113h-3v56h32q107 0 153.5 -35.5t46.5 -122.5v-183 q0 -78 109 -126z"/>
<glyph glyph-name="asciitilde" horiz-adv-x="932" unicode="~" d="M786 310q-41 -46 -85.5 -70.5t-106.5 -24.5q-65 0 -139 37q-74 39 -123 39q-65 0 -130 -76l-57 61q42 47 83.5 71t102.5 24q67 0 141 -37q74 -39 125 -39q64 0 131 75z"/>
<glyph glyph-name="uni00A0" horiz-adv-x="300" unicode=" "/>
<glyph glyph-name="exclamdown" horiz-adv-x="357" unicode="¡" d="M260 0h-152v55l28 478h96l28 -478v-55zM261 615h-155v109h155v-109z"/>
<glyph glyph-name="cent" horiz-adv-x="790" unicode="¢" d="M342 216v293q-65 -18 -100 -56.5t-35 -90.5q0 -53 34.5 -91t100.5 -55zM715 474l-106 -36q-61 60 -147 72v-293q88 9 149 71l99 -51q-98 -112 -248 -126v-111h-120v111q-131 22 -199 86.5t-68 164.5q0 97 68.5 162t198.5 90v110h120v-112q154 -18 253 -138z"/>
<glyph glyph-name="sterling" horiz-adv-x="733" unicode="£" d="M704 31q-82 -37 -146 -37q-37 0 -124 16t-137 16q-94 0 -188 -50l-68 108q120 94 120 197q0 18 -8 48h-119v96h88q-11 42 -11 73q0 108 82.5 172t225.5 64q145 0 266 -96l-60 -91q-97 79 -217 79q-177 0 -177 -131q0 -28 14 -70h261v-96h-237q6 -32 6 -59q0 -91 -57 -143 q36 3 59 3q50 0 136.5 -14.5t122.5 -14.5q58 0 113 29z"/>
<glyph glyph-name="currency" horiz-adv-x="750" unicode="¤" d="M502 355q0 53 -38.5 89t-87.5 36q-54 0 -90.5 -37t-36.5 -88q0 -52 37 -89t89 -37t89.5 37t37.5 89zM615 175q-18 -19 -56 -57q-12 11 -34.5 33.5l-33.5 33.5q-52 -35 -116 -35q-65 0 -115 35q-11 -11 -34 -33.5t-35 -33.5q-10 10 -28.5 29t-27.5 28q12 11 34.5 33 t34.5 32q-35 55 -35 114q0 64 35 114l-69 66q9 9 27.5 28t28.5 29q11 -11 34 -33.5t35 -33.5q52 35 115 35q65 0 115 -35q12 11 34.5 33.5t34.5 33.5q38 -38 56 -57l-69 -66q36 -52 36 -114q0 -58 -36 -114q12 -10 35 -32t34 -33z"/>
<glyph glyph-name="yen" horiz-adv-x="944" unicode="¥" d="M924 724l-270 -299h98v-96h-185l-39 -43v-42h224v-96h-224v-148h-120v148h-224v96h224v42l-39 43h-185v96h98l-270 299h149l308 -338l306 338h149z"/>
<glyph glyph-name="brokenbar" d="M287 199v-370h-73v370h73zM287 699v-370h-73v370h73z" unicode="¦"/>
<glyph glyph-name="section" horiz-adv-x="904" unicode="§" d="M651 312q35 26 35 62q0 64 -104 82q-40 7 -138.5 10.5t-157.5 12.5q-71 -20 -71 -64q0 -56 135 -71q23 -2 80.5 -5t112.5 -9t108 -18zM705 656q-141 71 -285 71q-92 0 -142 -21t-50 -57q0 -37 54 -55q25 -8 59 -12t89.5 -7.5t88.5 -6.5q155 -16 223.5 -56.5t68.5 -130.5 q0 -77 -61 -119q48 -49 48 -115q0 -101 -89.5 -156t-257.5 -55q-242 0 -382 109l67 88q154 -96 319 -96q104 0 161 28t57 75q0 54 -70 73q-31 9 -73 13t-105 6.5t-105 6.5q-117 11 -171.5 49.5t-54.5 112.5q0 79 67 122q-54 44 -54 112q0 90 84 142t237 52q221 0 348 -97z "/>
<glyph glyph-name="dieresis" d="M214 746q0 -25 -19 -43.5t-45 -18.5t-44.5 18t-18.5 44t18.5 45t44.5 19t45 -19t19 -45zM415 746q0 -25 -19 -43.5t-45 -18.5t-44.5 18t-18.5 44t18.5 45t44.5 19q25 0 44.5 -19t19.5 -45z" unicode="¨"/>
<glyph glyph-name="copyright" horiz-adv-x="833" unicode="©" d="M588 274q-34 -140 -173 -140q-86 0 -137 58.5t-51 159.5q0 103 52.5 163t140.5 60q129 0 163 -130h-63q-27 80 -98 80q-60 0 -92.5 -44.5t-32.5 -127.5q0 -80 33.5 -124t91.5 -44q76 0 103 89h63zM733 354q0 130 -92 224q-92 92 -225 92q-130 0 -221 -91 q-94 -94 -94 -225q0 -129 93 -222t222 -93q132 0 226 94q91 91 91 221zM775 354q0 -149 -103 -252q-107 -107 -256 -107q-146 0 -252 106t-106 253q0 148 107 255q104 104 251 104q151 0 256 -105q103 -103 103 -254z"/>
<glyph glyph-name="ordfeminine" horiz-adv-x="558" unicode="ª" d="M367 480l-88 164l-88 -164h176zM558 311h-99l-47 87h-266l-47 -87h-99l227 415h104z"/>
<glyph glyph-name="guillemotleft" horiz-adv-x="724" unicode="«" d="M390 484l-162 -163l159 -162h-147l-165 162l169 163h146zM649 484l-161 -163l159 -162h-147l-166 162l170 163h145z"/>
<glyph glyph-name="logicalnot" horiz-adv-x="932" unicode="¬" d="M763 142h-80v189h-514v80h594v-269z"/>
<glyph glyph-name="uni00AD" horiz-adv-x="531" unicode="­" d="M471 265h-411v109h411v-109z"/>
<glyph glyph-name="registered" horiz-adv-x="379" unicode="®" d="M188 579q33 0 33 24t-35 24h-22v-48h24zM260 487h-40l-32 69h-24v-69h-35v167h59q71 0 71 -49q0 -31 -36 -44zM321 571q0 55 -37.5 92.5t-94.5 37.5q-55 0 -92.5 -37.5t-37.5 -92.5t38 -93.5t92 -38.5q55 0 93.5 38.5t38.5 93.5zM344 571q0 -63 -46 -108.5t-112 -45.5 q-63 0 -107 45.5t-44 111.5q0 61 45.5 106t108.5 45q66 0 110.5 -44.5t44.5 -109.5z"/>
<glyph glyph-name="macron" d="M421 701h-343v74h343v-74z" unicode="¯"/>
<glyph glyph-name="degree" horiz-adv-x="532" unicode="°" d="M376 559q0 44 -32 75t-77 31q-46 0 -78 -31t-32 -75q0 -43 32 -73.5t78 -30.5t77.5 30.5t31.5 73.5zM448 559q0 -71 -55 -123q-51 -49 -126 -49t-127 49q-55 52 -55 123t55 123q51 49 127 49q75 0 126 -49q55 -52 55 -123z"/>
<glyph glyph-name="plusminus" horiz-adv-x="932" unicode="±" d="M763 347h-258v-201h-80v201h-256v80h256v201h80v-201h258v-80zM763 0h-594v80h594v-80z"/>
<glyph glyph-name="twosuperior" horiz-adv-x="553" unicode="²" d="M506 289h-486q4 82 52.5 134.5t146.5 80.5q22 6 56.5 14.5t58 15.5t40.5 15q34 18 34 47q0 31 -34 49.5t-95 18.5q-103 0 -187 -61l-50 48q109 78 239 78q94 0 153.5 -39t59.5 -99q0 -45 -31 -73.5t-95 -44.5q-18 -5 -65.5 -15.5t-72.5 -17.5q-86 -27 -116 -86h392v-65z "/>
<glyph glyph-name="threesuperior" horiz-adv-x="568" unicode="³" d="M412 518q97 -31 97 -107q0 -60 -66 -94.5t-187 -34.5q-154 0 -246 89l53 48q84 -71 202 -71q78 0 119 19t41 53q0 65 -190 65h-38v58h73q133 0 133 65q0 56 -130 56q-98 0 -183 -49l-45 45q109 69 228 69q100 0 156 -32t56 -86q0 -64 -73 -93z"/>
<glyph glyph-name="acute" d="M374 835l-124 -166h-61l69 166h116z" unicode="´"/>
<glyph glyph-name="mu" horiz-adv-x="562" unicode="µ" d="M188 523l-63 -293q-7 -31 -7 -65q0 -49 25.5 -75t72.5 -26q66 0 103 46.5t59 150.5l56 262h87l-76 -357q-11 -53 -11 -65q0 -18 8 -25.5t27 -7.5q10 0 16 1l-15 -70q-24 -5 -53 -5q-31 0 -47.5 14.5t-25.5 48.5q-43 -64 -132 -64q-77 0 -125 57l-54 -259h-88l155 732h88z "/>
<glyph glyph-name="paragraph" horiz-adv-x="945" unicode="¶" d="M426 385v230h-106q-147 0 -147 -119q0 -111 139 -111h114zM676 385v230h-130v-230h130zM796 -165h-120v441h-130v-441h-120v441h-112q-129 0 -196.5 57t-67.5 165q0 103 65 164.5t176 61.5h505v-889z"/>
<glyph glyph-name="periodcentered" horiz-adv-x="465" unicode="·" d="M310 265h-155v109h155v-109z"/>
<glyph glyph-name="cedilla" d="M251 -46q80 -8 80 -76q0 -37 -29.5 -60.5t-79.5 -23.5q-48 0 -96 19l19 36q31 -12 52 -12q22 0 36.5 11.5t14.5 26.5q0 11 -7 17.5t-18 6.5q-15 0 -27 -17l-31 14q26 48 59 111h60z" unicode="¸"/>
<glyph glyph-name="onesuperior" horiz-adv-x="253" unicode="¹" d="M174 289h-79v362l-77 -30v63q43 11 78 39h78v-434z"/>
<glyph glyph-name="ordmasculine" horiz-adv-x="608" unicode="º" d="M477 521q0 58 -48 95.5t-125 37.5t-125 -37.5t-48 -95.5q0 -60 47.5 -97t125.5 -37t125.5 37.5t47.5 96.5zM568 521q0 -94 -73.5 -154t-190.5 -60q-116 0 -190 60.5t-74 153.5q0 91 74.5 152.5t189.5 61.5t189.5 -61t74.5 -153z"/>
<glyph glyph-name="guillemotright" horiz-adv-x="724" unicode="»" d="M390 321l-166 -162h-147l159 162l-161 163h145zM649 321l-165 -162h-147l159 162l-162 163h146z"/>
<glyph glyph-name="onequarter" horiz-adv-x="1046" unicode="¼" d="M851 141v193l-220 -193h220zM1031 80h-104v-80h-76v80h-300v61l302 264h74v-264h104v-61zM780 724l-647 -734h-137l648 734h136zM166 318h-75v338l-73 -28v58q40 12 73 37h75v-405z"/>
<glyph glyph-name="onehalf" horiz-adv-x="1063" unicode="½" d="M1018 0h-463q7 150 189 201q20 5 53.5 13t56 14t38.5 14q32 17 32 44q0 29 -32.5 46.5t-90.5 17.5q-98 0 -178 -57l-48 45q104 72 228 72q90 0 146.5 -36t56.5 -92q0 -42 -29 -68.5t-91 -42.5q-18 -5 -63 -14t-69 -16q-81 -26 -110 -80h374v-61zM780 724l-647 -734h-137 l648 734h136zM166 318h-75v338l-73 -28v58q40 12 73 37h75v-405z"/>
<glyph glyph-name="threequarters" horiz-adv-x="1347" unicode="¾" d="M1152 141v193l-220 -193h220zM1332 80h-104v-80h-76v80h-300v61l302 264h74v-264h104v-61zM1081 724l-647 -734h-137l648 734h136zM393 531q93 -27 93 -99q0 -56 -63 -88t-179 -32q-147 0 -235 82l51 45q82 -66 193 -66q153 0 153 68q0 60 -182 60h-36v54h70q61 0 94 16 t33 44q0 53 -124 53q-94 0 -175 -45l-43 41q104 64 217 64q96 0 149.5 -29.5t53.5 -80.5q0 -58 -70 -87z"/>
<glyph glyph-name="questiondown" horiz-adv-x="727" unicode="¿" d="M705 134q-133 -139 -332 -139q-153 0 -240 58t-87 156q0 71 35 110.5t116 62.5q19 6 49.5 13t51 13t35.5 14q60 29 64 111h97q1 -13 1 -24q0 -75 -38 -120t-122 -75q-13 -5 -38.5 -13.5l-36 -12t-28.5 -11t-25 -13.5t-16.5 -15t-12.5 -20t-3 -24q0 -50 50.5 -77 t147.5 -27q159 0 249 98zM521 615h-155v109h155v-109z"/>
<glyph glyph-name="Agrave" horiz-adv-x="947" unicode="À" d="M537 780h-61l-124 166h116zM658 271l-184 350l-185 -350h369zM932 0h-131l-84 162h-487l-84 -162h-131l383 724h151z"/>
<glyph glyph-name="Aacute" horiz-adv-x="947" unicode="Á" d="M598 946l-124 -166h-61l69 166h116zM658 271l-184 350l-185 -350h369zM932 0h-131l-84 162h-487l-84 -162h-131l383 724h151z"/>
<glyph glyph-name="Acircumflex" horiz-adv-x="947" unicode="Â" d="M667 779h-102l-91 99l-91 -99h-102l153 166h80zM658 271l-184 350l-185 -350h369zM932 0h-131l-84 162h-487l-84 -162h-131l383 724h151z"/>
<glyph glyph-name="Atilde" horiz-adv-x="947" unicode="Ã" d="M644 880q-45 -84 -103 -84q-30 0 -74 18.5t-55 18.5q-24 0 -53 -48l-59 46q35 41 59 59.5t49 18.5t68 -19t60 -19q16 0 27.5 10.5t26.5 35.5zM658 271l-184 350l-185 -350h369zM932 0h-131l-84 162h-487l-84 -162h-131l383 724h151z"/>
<glyph glyph-name="Adieresis" horiz-adv-x="947" unicode="Ä" d="M438 857q0 -25 -19 -43.5t-45 -18.5t-44.5 18t-18.5 44t18.5 45t44.5 19t45 -19t19 -45zM639 857q0 -25 -19 -43.5t-45 -18.5t-44.5 18t-18.5 44t18.5 45t44.5 19q25 0 44.5 -19.5t19.5 -44.5zM658 271l-184 350l-185 -350h369zM932 0h-131l-84 162h-487l-84 -162h-131 l383 724h151z"/>
<glyph glyph-name="Aring" horiz-adv-x="947" unicode="Å" d="M658 271l-184 350l-185 -350h369zM527 871q0 17 -15.5 29.5t-37.5 12.5q-23 0 -37.5 -12.5t-14.5 -29.5q0 -18 14 -29.5t38 -11.5q23 0 38 12t15 29zM932 0h-131l-84 162h-487l-84 -162h-131l383 724h151zM587 871q0 -39 -32 -65.5t-81 -26.5q-48 0 -80 26.5t-32 65.5 t32 66t80 27t80.5 -27t32.5 -66z"/>
<glyph glyph-name="AE" horiz-adv-x="1402" unicode="Æ" d="M584 271v349l-246 -349h246zM1342 0h-758v162h-324l-113 -162h-132l511 724h788v-109h-610v-185h424v-109h-424v-212h638v-109z"/>
<glyph glyph-name="Ccedilla" horiz-adv-x="1046" unicode="Ç" d="M966 559l-109 -39q-110 117 -308 117q-150 0 -244.5 -77t-94.5 -196q0 -123 93.5 -198.5t252.5 -75.5q192 0 302 119l103 -57q-146 -172 -399 -172h-5l-16 -26q80 -8 80 -76q0 -37 -29.5 -60.5t-79.5 -23.5q-48 0 -96 19l19 36q31 -12 52 -12q22 0 36.5 11.5t14.5 26.5 q0 11 -7 17.5t-18 6.5q-15 0 -27 -17l-31 14q2 3 18 33t28 53q-198 22 -307 123.5t-109 258.5q0 175 147 286q127 97 317 97q273 0 417 -188z"/>
<glyph glyph-name="Egrave" horiz-adv-x="939" unicode="È" d="M542 780h-61l-124 166h116zM879 0h-758v724h730v-109h-610v-185h424v-109h-424v-212h638v-109z"/>
<glyph glyph-name="Eacute" horiz-adv-x="939" unicode="É" d="M603 946l-124 -166h-61l69 166h116zM879 0h-758v724h730v-109h-610v-185h424v-109h-424v-212h638v-109z"/>
<glyph glyph-name="Ecircumflex" horiz-adv-x="939" unicode="Ê" d="M672 779h-102l-91 99l-91 -99h-102l153 166h80zM879 0h-758v724h730v-109h-610v-185h424v-109h-424v-212h638v-109z"/>
<glyph glyph-name="Edieresis" horiz-adv-x="939" unicode="Ë" d="M443 857q0 -25 -19 -43.5t-45 -18.5t-44.5 18t-18.5 44t18.5 45t44.5 19t45 -19t19 -45zM644 857q0 -25 -19 -43.5t-45 -18.5t-44.5 18t-18.5 44t18.5 45t44.5 19t45 -19.5t19 -44.5zM879 0h-758v724h730v-109h-610v-185h424v-109h-424v-212h638v-109z"/>
<glyph glyph-name="Igrave" horiz-adv-x="362" unicode="Ì" d="M244 780h-61l-124 166h116zM241 0h-120v724h120v-724z"/>
<glyph glyph-name="Iacute" horiz-adv-x="362" unicode="Í" d="M305 946l-124 -166h-61l69 166h116zM241 0h-120v724h120v-724z"/>
<glyph glyph-name="Icircumflex" horiz-adv-x="362" unicode="Î" d="M374 779h-102l-91 99l-91 -99h-102l153 166h80zM241 0h-120v724h120v-724z"/>
<glyph glyph-name="Idieresis" horiz-adv-x="362" unicode="Ï" d="M145 857q0 -25 -19 -43.5t-45 -18.5t-44.5 18t-18.5 44t18.5 45t44.5 19t45 -19t19 -45zM346 857q0 -25 -19 -43.5t-45 -18.5t-44.5 18t-18.5 44t18.5 45t44.5 19t45 -19.5t19 -44.5zM241 0h-120v724h120v-724z"/>
<glyph glyph-name="Eth" horiz-adv-x="1065" unicode="Ð" d="M612 109q108 0 177.5 69.5t69.5 178.5q0 116 -74.5 187t-195.5 71h-348v-182h335v-109h-335v-215h371zM579 724q189 0 299.5 -100.5t110.5 -269.5q0 -156 -117 -258q-108 -96 -270 -96h-481v324h-72v109h72v291h458z"/>
<glyph glyph-name="Ntilde" horiz-adv-x="1064" unicode="Ñ" d="M702 880q-45 -84 -103 -84q-30 0 -74 18.5t-55 18.5q-24 0 -53 -48l-59 46q35 41 59 59.5t49 18.5t68 -19t60 -19q16 0 27.5 10.5t26.5 35.5zM943 0h-148l-554 594v-594h-120v724h149l553 -594v594h120v-724z"/>
<glyph glyph-name="Ograve" horiz-adv-x="1096" unicode="Ò" d="M611 780h-61l-124 166h116zM888 363q0 127 -108 206q-94 68 -231 68q-151 0 -246 -77.5t-95 -196.5q0 -123 93 -198.5t248 -75.5q154 0 246.5 76t92.5 198zM1013 363q0 -178 -146 -288q-128 -96 -318 -96q-192 0 -320 97q-146 110 -146 287q0 174 148 286q130 98 318 98 t317 -98q147 -112 147 -286z"/>
<glyph glyph-name="Oacute" horiz-adv-x="1096" unicode="Ó" d="M672 946l-124 -166h-61l69 166h116zM888 363q0 127 -108 206q-94 68 -231 68q-151 0 -246 -77.5t-95 -196.5q0 -123 93 -198.5t248 -75.5q154 0 246.5 76t92.5 198zM1013 363q0 -178 -146 -288q-128 -96 -318 -96q-192 0 -320 97q-146 110 -146 287q0 174 148 286 q130 98 318 98t317 -98q147 -112 147 -286z"/>
<glyph glyph-name="Ocircumflex" horiz-adv-x="1096" unicode="Ô" d="M741 779h-102l-91 99l-91 -99h-102l153 166h80zM888 363q0 127 -108 206q-94 68 -231 68q-151 0 -246 -77.5t-95 -196.5q0 -123 93 -198.5t248 -75.5q154 0 246.5 76t92.5 198zM1013 363q0 -178 -146 -288q-128 -96 -318 -96q-192 0 -320 97q-146 110 -146 287 q0 174 148 286q130 98 318 98t317 -98q147 -112 147 -286z"/>
<glyph glyph-name="Otilde" horiz-adv-x="1096" unicode="Õ" d="M718 880q-45 -84 -103 -84q-30 0 -74 18.5t-55 18.5q-24 0 -53 -48l-59 46q35 41 59 59.5t49 18.5t68 -19t60 -19q16 0 27.5 10.5t26.5 35.5zM888 363q0 127 -108 206q-94 68 -231 68q-151 0 -246 -77.5t-95 -196.5q0 -123 93 -198.5t248 -75.5q154 0 246.5 76t92.5 198z M1013 363q0 -178 -146 -288q-128 -96 -318 -96q-192 0 -320 97q-146 110 -146 287q0 174 148 286q130 98 318 98t317 -98q147 -112 147 -286z"/>
<glyph glyph-name="Odieresis" horiz-adv-x="1096" unicode="Ö" d="M512 857q0 -25 -19 -43.5t-45 -18.5t-44.5 18t-18.5 44t18.5 45t44.5 19t45 -19t19 -45zM713 857q0 -25 -19 -43.5t-45 -18.5t-44.5 18t-18.5 44t18.5 45t44.5 19q25 0 44.5 -19.5t19.5 -44.5zM888 363q0 127 -108 206q-94 68 -231 68q-151 0 -246 -77.5t-95 -196.5 q0 -123 93 -198.5t248 -75.5q154 0 246.5 76t92.5 198zM1013 363q0 -178 -146 -288q-128 -96 -318 -96q-192 0 -320 97q-146 110 -146 287q0 174 148 286q130 98 318 98t317 -98q147 -112 147 -286z"/>
<glyph glyph-name="multiply" horiz-adv-x="932" unicode="×" d="M741 64l-57 -56l-218 220l-217 -219l-57 57l217 216l-220 221l55 57l222 -221l222 221l54 -58l-220 -220z"/>
<glyph glyph-name="Oslash" horiz-adv-x="1096" unicode="Ø" d="M695 613q-73 24 -146 24q-138 0 -232 -68q-109 -78 -109 -206q0 -124 108 -209zM382 119q81 -30 167 -30q154 0 246.5 76t92.5 198q0 132 -125 217zM836 669q177 -112 177 -306q0 -177 -146 -288q-126 -96 -318 -96q-120 0 -240 50l-61 -73h-95l91 110q-161 110 -161 297 q0 174 148 286q130 98 318 98q109 0 221 -44l61 74h94z"/>
<glyph glyph-name="Ugrave" horiz-adv-x="1052" unicode="Ù" d="M589 780h-61l-124 166h116zM936 234q0 -113 -111 -184.5t-298 -71.5t-299 72t-112 184v490h120v-461q0 -85 74.5 -130t216.5 -45t215.5 45t73.5 130v461h120v-490z"/>
<glyph glyph-name="Uacute" horiz-adv-x="1052" unicode="Ú" d="M650 946l-124 -166h-61l69 166h116zM936 234q0 -113 -111 -184.5t-298 -71.5t-299 72t-112 184v490h120v-461q0 -85 74.5 -130t216.5 -45t215.5 45t73.5 130v461h120v-490z"/>
<glyph glyph-name="Ucircumflex" horiz-adv-x="1052" unicode="Û" d="M719 779h-102l-91 99l-91 -99h-102l153 166h80zM936 234q0 -113 -111 -184.5t-298 -71.5t-299 72t-112 184v490h120v-461q0 -85 74.5 -130t216.5 -45t215.5 45t73.5 130v461h120v-490z"/>
<glyph glyph-name="Udieresis" horiz-adv-x="1052" unicode="Ü" d="M490 857q0 -25 -19 -43.5t-45 -18.5t-44.5 18t-18.5 44t18.5 45t44.5 19t45 -19t19 -45zM691 857q0 -25 -19 -43.5t-45 -18.5t-44.5 18t-18.5 44t18.5 45t44.5 19q25 0 44.5 -19.5t19.5 -44.5zM936 234q0 -113 -111 -184.5t-298 -71.5t-299 72t-112 184v490h120v-461 q0 -85 74.5 -130t216.5 -45t215.5 45t73.5 130v461h120v-490z"/>
<glyph glyph-name="Yacute" horiz-adv-x="922" unicode="Ý" d="M585 946l-124 -166h-61l69 166h116zM917 724l-396 -438v-286h-120v286l-396 438h149l308 -338l306 338h149z"/>
<glyph glyph-name="Thorn" horiz-adv-x="953" unicode="Þ" d="M674 276q139 0 139 111q0 119 -147 119h-425v-230h433zM695 615q111 0 176 -61.5t65 -164.5q0 -108 -67.5 -165t-196.5 -57h-431v-167h-120v724h120v-109h454z"/>
<glyph glyph-name="germandbls" horiz-adv-x="1583" unicode="ß" d="M662 463q-120 63 -261 63q-205 0 -205 -73q0 -14 6 -24t20.5 -17t30 -11t43.5 -7t52 -5t63.5 -5t71.5 -6q151 -15 218.5 -56t67.5 -129q0 -99 -88.5 -153t-256.5 -54q-237 0 -379 108l65 85q127 -89 312 -89q104 0 161 26.5t57 70.5q0 50 -70 69q-30 8 -71.5 11.5 t-102.5 6t-104 6.5q-114 11 -168 49t-54 111q0 88 86.5 139.5t242.5 51.5q208 0 337 -90zM1431 463q-120 63 -262 63q-204 0 -204 -73q0 -14 6 -24t20 -17t30 -11t43.5 -7t51.5 -5t64 -5t72 -6q150 -15 218 -56t68 -129q0 -98 -89 -152.5t-256 -54.5q-237 0 -379 108l65 85 q127 -89 312 -89q104 0 161 26.5t57 70.5q0 50 -70 69q-30 8 -71.5 11.5t-102.5 6t-104 6.5q-114 11 -168 49t-54 111q0 88 86 139.5t242 51.5q207 0 337 -90z"/>
<glyph glyph-name="agrave" horiz-adv-x="845" unicode="à" d="M486 669h-61l-124 166h116zM569 241l-146 272l-147 -272h293zM832 0h-132l-71 132h-413l-71 -132h-132l335 615h149z"/>
<glyph glyph-name="aacute" horiz-adv-x="845" unicode="á" d="M547 835l-124 -166h-61l69 166h116zM569 241l-146 272l-147 -272h293zM832 0h-132l-71 132h-413l-71 -132h-132l335 615h149z"/>
<glyph glyph-name="acircumflex" horiz-adv-x="845" unicode="â" d="M616 668h-102l-91 99l-91 -99h-102l153 166h80zM569 241l-146 272l-147 -272h293zM832 0h-132l-71 132h-413l-71 -132h-132l335 615h149z"/>
<glyph glyph-name="atilde" horiz-adv-x="845" unicode="ã" d="M593 769q-45 -84 -103 -84q-30 0 -74 18.5t-55 18.5q-25 0 -53 -48l-59 46q35 41 59 59.5t49 18.5t68 -19t60 -19q16 0 27.5 10.5t26.5 35.5zM569 241l-146 272l-147 -272h293zM832 0h-132l-71 132h-413l-71 -132h-132l335 615h149z"/>
<glyph glyph-name="adieresis" horiz-adv-x="845" unicode="ä" d="M387 746q0 -25 -19 -43.5t-45 -18.5t-44.5 18t-18.5 44t18.5 45t44.5 19t45 -19t19 -45zM588 746q0 -25 -19 -43.5t-45 -18.5t-44.5 18t-18.5 44t18.5 45t44.5 19t45 -19t19 -45zM569 241l-146 272l-147 -272h293zM832 0h-132l-71 132h-413l-71 -132h-132l335 615h149z "/>
<glyph glyph-name="aring" horiz-adv-x="845" unicode="å" d="M569 241l-146 272l-147 -272h293zM476 763q0 17 -15 29.5t-38 12.5t-38 -12.5t-15 -29.5t15 -29t38 -12q22 0 37.5 12t15.5 29zM832 0h-132l-71 132h-413l-71 -132h-132l335 615h149zM536 763q0 -39 -32.5 -65.5t-80.5 -26.5t-80 26.5t-32 65.5t32 66t80 27t80.5 -27 t32.5 -66z"/>
<glyph glyph-name="ae" horiz-adv-x="1217" unicode="æ" d="M505 241v268l-195 -268h195zM1167 0h-662v132h-274l-98 -132h-120l447 615h684v-109h-519v-132h361v-109h-361v-156h542v-109z"/>
<glyph glyph-name="ccedilla" horiz-adv-x="904" unicode="ç" d="M841 467l-110 -38q-98 98 -259 98q-124 0 -201.5 -61t-77.5 -156q0 -97 76.5 -158t202.5 -61q84 0 146 23.5t115 77.5l103 -55q-133 -152 -347 -153l-19 -30q80 -8 80 -76q0 -37 -29.5 -60.5t-79.5 -23.5q-48 0 -96 19l19 36q32 -12 52 -12q22 0 36.5 11.5t14.5 26.5 q0 11 -7 17.5t-18 6.5q-15 0 -27 -17l-31 14q23 40 48 89q-173 18 -268.5 105t-95.5 220q0 148 129 243q113 82 275 82q226 0 369 -168z"/>
<glyph glyph-name="egrave" horiz-adv-x="817" unicode="è" d="M478 669h-61l-124 166h116zM767 0h-662v615h639v-109h-519v-132h361v-109h-361v-156h542v-109z"/>
<glyph glyph-name="eacute" horiz-adv-x="817" unicode="é" d="M539 835l-124 -166h-61l69 166h116zM767 0h-662v615h639v-109h-519v-132h361v-109h-361v-156h542v-109z"/>
<glyph glyph-name="ecircumflex" horiz-adv-x="817" unicode="ê" d="M608 668h-102l-91 99l-91 -99h-102l153 166h80zM767 0h-662v615h639v-109h-519v-132h361v-109h-361v-156h542v-109z"/>
<glyph glyph-name="edieresis" horiz-adv-x="817" unicode="ë" d="M379 746q0 -25 -19 -43.5t-45 -18.5t-44.5 18t-18.5 44t18.5 45t44.5 19t45 -19t19 -45zM580 746q0 -25 -19 -43.5t-45 -18.5t-44.5 18t-18.5 44t18.5 45t44.5 19t45 -19t19 -45zM767 0h-662v615h639v-109h-519v-132h361v-109h-361v-156h542v-109z"/>
<glyph glyph-name="igrave" horiz-adv-x="330" unicode="ì" d="M228 669h-61l-124 166h116zM225 0h-120v615h120v-615z"/>
<glyph glyph-name="iacute" horiz-adv-x="330" unicode="í" d="M289 835l-124 -166h-61l69 166h116zM225 0h-120v615h120v-615z"/>
<glyph glyph-name="icircumflex" horiz-adv-x="330" unicode="î" d="M358 668h-102l-91 99l-91 -99h-102l153 166h80zM225 0h-120v615h120v-615z"/>
<glyph glyph-name="idieresis" horiz-adv-x="330" unicode="ï" d="M129 746q0 -25 -19 -43.5t-45 -18.5t-44.5 18t-18.5 44t18.5 45t44.5 19t45 -19t19 -45zM330 746q0 -25 -19 -43.5t-45 -18.5t-44.5 18t-18.5 44t18.5 45t44.5 19t45 -19t19 -45zM225 0h-120v615h120v-615z"/>
<glyph glyph-name="eth" horiz-adv-x="920" unicode="ð" d="M530 109q88 0 144.5 55t56.5 140q0 91 -60 146.5t-160 55.5h-287v-139h287v-109h-287v-149h306zM502 615q162 0 260 -85t98 -218q0 -134 -104 -232q-31 -31 -98.5 -55.5t-135.5 -24.5h-418v258h-50v109h50v248h398z"/>
<glyph glyph-name="ntilde" horiz-adv-x="927" unicode="ñ" d="M634 769q-45 -84 -103 -84q-30 0 -74 18.5t-55 18.5q-24 0 -53 -48l-59 46q35 41 59 59.5t49 18.5t68 -19t60 -19q16 0 27.5 10.5t26.5 35.5zM822 0h-179l-418 513v-513h-120v615h179l418 -513v513h120v-615z"/>
<glyph glyph-name="ograve" horiz-adv-x="945" unicode="ò" d="M536 669h-61l-124 166h116zM752 309q0 95 -78 156.5t-201 61.5q-124 0 -202.5 -62t-78.5 -156q0 -98 77 -158.5t204 -60.5q126 0 202.5 60.5t76.5 158.5zM877 309q0 -151 -129 -246q-110 -81 -275 -81q-164 0 -276 81q-129 95 -129 246q0 150 130 244q114 83 275 83 q160 0 274 -83q130 -95 130 -244z"/>
<glyph glyph-name="oacute" horiz-adv-x="945" unicode="ó" d="M597 835l-124 -166h-61l69 166h116zM752 309q0 95 -78 156.5t-201 61.5q-124 0 -202.5 -62t-78.5 -156q0 -98 77 -158.5t204 -60.5q126 0 202.5 60.5t76.5 158.5zM877 309q0 -151 -129 -246q-110 -81 -275 -81q-164 0 -276 81q-129 95 -129 246q0 150 130 244 q114 83 275 83q160 0 274 -83q130 -95 130 -244z"/>
<glyph glyph-name="ocircumflex" horiz-adv-x="945" unicode="ô" d="M666 668h-102l-91 99l-91 -99h-102l153 166h80zM752 309q0 95 -78 156.5t-201 61.5q-124 0 -202.5 -62t-78.5 -156q0 -98 77 -158.5t204 -60.5q126 0 202.5 60.5t76.5 158.5zM877 309q0 -151 -129 -246q-110 -81 -275 -81q-164 0 -276 81q-129 95 -129 246q0 150 130 244 q114 83 275 83q160 0 274 -83q130 -95 130 -244z"/>
<glyph glyph-name="otilde" horiz-adv-x="945" unicode="õ" d="M643 769q-45 -84 -103 -84q-30 0 -74 18.5t-55 18.5q-25 0 -53 -48l-59 46q35 41 59 59.5t49 18.5t68 -19t60 -19q16 0 27.5 10.5t26.5 35.5zM752 309q0 95 -78 156.5t-201 61.5q-124 0 -202.5 -62t-78.5 -156q0 -98 77 -158.5t204 -60.5q126 0 202.5 60.5t76.5 158.5z M877 309q0 -151 -129 -246q-110 -81 -275 -81q-164 0 -276 81q-129 95 -129 246q0 150 130 244q114 83 275 83q160 0 274 -83q130 -95 130 -244z"/>
<glyph glyph-name="odieresis" horiz-adv-x="945" unicode="ö" d="M437 746q0 -25 -19 -43.5t-45 -18.5t-44.5 18t-18.5 44t18.5 45t44.5 19t45 -19t19 -45zM638 746q0 -25 -19 -43.5t-45 -18.5t-44.5 18t-18.5 44t18.5 45t44.5 19t45 -19t19 -45zM752 309q0 95 -78 156.5t-201 61.5q-124 0 -202.5 -62t-78.5 -156q0 -98 77 -158.5 t204 -60.5q126 0 202.5 60.5t76.5 158.5zM877 309q0 -151 -129 -246q-110 -81 -275 -81q-164 0 -276 81q-129 95 -129 246q0 150 130 244q114 83 275 83q160 0 274 -83q130 -95 130 -244z"/>
<glyph glyph-name="divide" horiz-adv-x="833" unicode="÷" d="M417 179q25 0 43 -18t18 -43t-18 -43t-43 -18q-26 0 -43.5 17.5t-17.5 43.5q0 25 18 43t43 18zM709 332v-68h-585v68h585zM417 540q25 0 43 -18.5t18 -43.5t-18 -43t-43 -18t-43 17.5t-18 43.5q0 25 18 43.5t43 18.5z"/>
<glyph glyph-name="oslash" horiz-adv-x="945" unicode="ø" d="M589 509q-60 18 -116 18q-124 0 -202.5 -62t-78.5 -156q0 -102 91 -168zM349 110q57 -20 124 -20q126 0 202.5 60.5t76.5 158.5q0 103 -98 170zM727 566q150 -95 150 -257q0 -151 -129 -246q-110 -81 -275 -81q-99 0 -198 39l-55 -66h-92l83 99q-143 95 -143 255 q0 150 130 244q114 83 275 83q93 0 191 -37l47 55h91z"/>
<glyph glyph-name="ugrave" horiz-adv-x="911" unicode="ù" d="M519 669h-61l-124 166h116zM813 202q0 -97 -97 -158.5t-260 -61.5q-164 0 -261 61.5t-97 158.5v413h120v-389q0 -66 60.5 -101t177.5 -35q116 0 176.5 35t60.5 101v389h120v-413z"/>
<glyph glyph-name="uacute" horiz-adv-x="911" unicode="ú" d="M580 835l-124 -166h-61l69 166h116zM813 202q0 -97 -97 -158.5t-260 -61.5q-164 0 -261 61.5t-97 158.5v413h120v-389q0 -66 60.5 -101t177.5 -35q116 0 176.5 35t60.5 101v389h120v-413z"/>
<glyph glyph-name="ucircumflex" horiz-adv-x="911" unicode="û" d="M649 668h-102l-91 99l-91 -99h-102l153 166h80zM813 202q0 -97 -97 -158.5t-260 -61.5q-164 0 -261 61.5t-97 158.5v413h120v-389q0 -66 60.5 -101t177.5 -35q116 0 176.5 35t60.5 101v389h120v-413z"/>
<glyph glyph-name="udieresis" horiz-adv-x="911" unicode="ü" d="M420 746q0 -25 -19 -43.5t-45 -18.5t-44.5 18t-18.5 44t18.5 45t44.5 19t45 -19t19 -45zM621 746q0 -25 -19 -43.5t-45 -18.5t-44.5 18t-18.5 44t18.5 45t44.5 19q25 0 44.5 -19t19.5 -45zM813 202q0 -97 -97 -158.5t-260 -61.5q-164 0 -261 61.5t-97 158.5v413h120v-389 q0 -66 60.5 -101t177.5 -35q116 0 176.5 35t60.5 101v389h120v-413z"/>
<glyph glyph-name="yacute" horiz-adv-x="828" unicode="ý" d="M538 835l-124 -166h-61l69 166h116zM823 615l-350 -373v-242h-120v242l-348 373h146l263 -280l263 280h146z"/>
<glyph glyph-name="thorn" horiz-adv-x="836" unicode="þ" d="M584 272q109 0 109 83q0 46 -28 67t-88 21h-352v-171h359zM602 552q98 0 156 -53t58 -142q0 -93 -60.5 -143.5t-173.5 -50.5h-357v-163h-120v615h120v-63h377z"/>
<glyph glyph-name="ydieresis" horiz-adv-x="828" unicode="ÿ" d="M378 746q0 -25 -19 -43.5t-45 -18.5t-44.5 18t-18.5 44t18.5 45t44.5 19t45 -19t19 -45zM579 746q0 -25 -19 -43.5t-45 -18.5t-44.5 18t-18.5 44t18.5 45t44.5 19q25 0 44.5 -19t19.5 -45zM823 615l-350 -373v-242h-120v242l-348 373h146l263 -280l263 280h146z"/>
<glyph glyph-name="dotlessi" horiz-adv-x="330" unicode="ı" d="M225 0h-120v615h120v-615z"/>
<glyph glyph-name="Lslash" horiz-adv-x="820" unicode="Ł" d="M800 0h-679v207l-49 -31v130l49 31v387h120v-313l243 151v-129l-243 -152v-172h559v-109z"/>
<glyph glyph-name="lslash" horiz-adv-x="725" unicode="ł" d="M700 0h-595v164l-42 -26v128l42 26v323h120v-251l207 125v-128l-207 -125v-127h475v-109z"/>
<glyph glyph-name="OE" horiz-adv-x="1533" unicode="Œ" d="M715 170v393q0 47 -96 51h-84q-148 0 -237.5 -70.5t-89.5 -182.5q0 -116 87.5 -184t240.5 -68h89q90 0 90 61zM1473 0h-935q-188 0 -310 87q-145 103 -145 274q0 167 145 273q124 90 307 90h910v-109h-610v-185h424v-109h-424v-212h638v-109z"/>
<glyph glyph-name="oe" horiz-adv-x="1318" unicode="œ" d="M606 137v334q0 35 -63 35h-83q-121 0 -194 -55.5t-73 -143.5q0 -92 70.5 -145t196.5 -53h76q70 0 70 28zM1268 0h-805q-160 0 -267 73q-128 88 -128 234q0 145 127 233q107 75 265 75h785v-109h-519v-132h361v-109h-361v-156h542v-109z"/>
<glyph glyph-name="Scaron" horiz-adv-x="939" unicode="Š" d="M648 945l-153 -166h-80l-153 166h102l91 -99l91 99h102zM755 554q-161 82 -328 82q-111 0 -170 -26t-59 -72q0 -47 63 -70q35 -12 86.5 -17t127 -9.5t131.5 -11.5q136 -17 201 -66.5t65 -139.5q0 -115 -102 -178t-293 -63q-277 0 -431 122l66 87q170 -104 366 -104 q127 0 195.5 34t68.5 94q0 35 -15.5 56t-65 33t-83.5 15.5t-129 9.5q-28 2 -43 3q-179 12 -257 51t-78 138q0 102 95.5 161t269.5 59q234 0 392 -107z"/>
<glyph glyph-name="scaron" horiz-adv-x="814" unicode="š" d="M601 834l-153 -166h-80l-153 166h102l91 -99l91 99h102zM662 463q-120 63 -261 63q-205 0 -205 -73q0 -14 6 -24t20.5 -17t30 -11t43.5 -7t52 -5t63.5 -5t71.5 -6q151 -15 218.5 -56t67.5 -129q0 -99 -88.5 -153t-256.5 -54q-237 0 -379 108l65 85q127 -89 312 -89 q104 0 161 26.5t57 70.5q0 50 -70 69q-30 8 -71.5 11.5t-102.5 6t-104 6.5q-114 11 -168 49t-54 111q0 88 86.5 139.5t242.5 51.5q208 0 337 -90z"/>
<glyph glyph-name="Ydieresis" horiz-adv-x="922" unicode="Ÿ" d="M425 857q0 -25 -19 -43.5t-45 -18.5t-44.5 18t-18.5 44t18.5 45t44.5 19t45 -19t19 -45zM626 857q0 -25 -19 -43.5t-45 -18.5t-44.5 18t-18.5 44t18.5 45t44.5 19t45 -19.5t19 -44.5zM917 724l-396 -438v-286h-120v286l-396 438h149l308 -338l306 338h149z"/>
<glyph glyph-name="Zcaron" horiz-adv-x="887" unicode="Ž" d="M638 945l-153 -166h-80l-153 166h102l91 -99l91 99h102zM837 0h-787v109l598 506h-589v109h751v-109l-598 -506h625v-109z"/>
<glyph glyph-name="zcaron" horiz-adv-x="767" unicode="ž" d="M578 834l-153 -166h-80l-153 166h102l91 -99l91 99h102zM727 0h-687v109l492 397h-485v109h657v-109l-493 -397h516v-109z"/>
<glyph glyph-name="florin" horiz-adv-x="553" unicode="ƒ" d="M537 710l-38 -94q-43 20 -67 20q-50 0 -61 -52l-32 -159h105v-96h-124l-60 -322q-10 -54 -54 -90t-103 -36q-45 0 -104 21l27 96q38 -20 69 -20q37 0 43 31l60 320h-93v96h111q25 166 71 239t136 73q47 0 114 -27z"/>
<glyph glyph-name="circumflex" d="M443 668h-102l-91 99l-91 -99h-102l153 166h80z" unicode="ˆ"/>
<glyph glyph-name="caron" d="M444 834l-153 -166h-80l-153 166h102l91 -99l91 99h102z" unicode="ˇ"/>
<glyph glyph-name="uni02C9" d="M421 701h-343v74h343v-74z" unicode="ˉ"/>
<glyph glyph-name="breve" d="M398 797q-15 -67 -50.5 -98t-96.5 -31t-96.5 31.5t-51.5 97.5h83q12 -57 65 -57t65 57h82z" unicode="˘"/>
<glyph glyph-name="dotaccent" d="M314 746q0 -25 -19 -43.5t-45 -18.5t-44.5 18t-18.5 44t18.5 45t44.5 19t45 -19t19 -45z" unicode="˙"/>
<glyph glyph-name="ring" d="M303 760q0 17 -15.5 29.5t-37.5 12.5q-23 0 -38 -12.5t-15 -29.5t15 -29t38 -12q22 0 37.5 12t15.5 29zM363 760q0 -39 -32.5 -65.5t-80.5 -26.5t-80 26.5t-32 65.5t32 66t80 27t80.5 -27t32.5 -66z" unicode="˚"/>
<glyph glyph-name="ogonek" d="M350 -189q-48 -16 -95 -16q-60 0 -91.5 24.5t-31.5 70.5q0 77 109 119h96q-111 -54 -111 -117q0 -26 15 -40.5t40 -14.5q17 0 55 12z" unicode="˛"/>
<glyph glyph-name="tilde" d="M420 769q-45 -84 -103 -84q-30 0 -74 18.5t-55 18.5q-25 0 -53 -48l-59 46q35 41 59 59.5t49 18.5t68 -19t60 -19q16 0 27.5 10.5t26.5 35.5z" unicode="˜"/>
<glyph glyph-name="hungarumlaut" d="M286 834l-107 -166h-61l52 166h116zM464 834l-107 -166h-61l52 166h116z" unicode="˝"/>
<glyph glyph-name="uni03A9" horiz-adv-x="961" unicode="Ω" d="M915 0h-343v102q42 25 73 49t65 59.5t52.5 80.5t18.5 96q0 85 -79 150.5t-216 65.5q-124 0 -213 -59.5t-89 -160.5q0 -41 14.5 -80t34.5 -66t51.5 -55.5t53.5 -44t53 -35.5v-102h-345v102h226q-94 41 -158.5 118t-64.5 185q0 136 119 221.5t312 85.5q110 0 195.5 -26 t136.5 -69.5t77 -96.5t26 -112q0 -101 -67 -183.5t-169 -122.5h236v-102z"/>
<glyph glyph-name="uni03BC" horiz-adv-x="618" unicode="μ" d="M207 523l-69 -293q-8 -29 -8 -65q0 -49 28 -75t80 -26q73 0 113 46.5t65 150.5l61 262h96l-83 -357q-13 -54 -13 -65q0 -18 9 -25.5t30 -7.5q11 0 18 1l-17 -70q-26 -5 -58 -5q-34 0 -52 14.5t-29 48.5q-46 -64 -145 -64q-84 0 -137 57l-60 -259h-97l171 732h97z"/>
<glyph glyph-name="pi" horiz-adv-x="1059" unicode="π" d="M940 93l23 -83q-40 -19 -105 -19q-80 0 -120.5 41.5t-40.5 118.5v257h-303v-269q0 -86 -25 -139h-130q28 54 28 144v264q-78 -2 -137 -29q0 2 -17 41t-18 41q26 15 77.5 27t109.5 12h680v-92h-139v-241q0 -84 72 -84q21 0 45 10z"/>
<glyph glyph-name="endash" horiz-adv-x="845" unicode="–" d="M777 265h-717v109h717v-109z"/>
<glyph glyph-name="emdash" horiz-adv-x="975" unicode="—" d="M915 265h-855v109h855v-109z"/>
<glyph glyph-name="quoteleft" horiz-adv-x="275" unicode="‘" d="M215 478h-155v137q0 109 125 109h23v-59q-75 -1 -75 -42v-36h82v-109z"/>
<glyph glyph-name="quoteright" horiz-adv-x="275" unicode="’" d="M215 587q0 -109 -125 -109h-23v59q75 0 75 42v36h-82v109h155v-137z"/>
<glyph glyph-name="quotesinglbase" horiz-adv-x="365" unicode="‚" d="M260 -28q0 -109 -125 -109h-23v59q75 2 75 42v36h-82v109h155v-137z"/>
<glyph glyph-name="quotedblleft" horiz-adv-x="513" unicode="“" d="M215 478h-155v137q0 109 125 109h23v-59q-75 -1 -75 -42v-36h82v-109zM453 478h-155v137q0 109 125 109h23v-59q-75 -1 -75 -42v-36h82v-109z"/>
<glyph glyph-name="quotedblright" horiz-adv-x="513" unicode="”" d="M215 587q0 -109 -125 -109h-23v59q75 0 75 42v36h-82v109h155v-137zM453 587q0 -109 -125 -109h-23v59q75 0 75 42v36h-82v109h155v-137z"/>
<glyph glyph-name="quotedblbase" horiz-adv-x="593" unicode="„" d="M260 -28q0 -109 -125 -109h-23v59q75 2 75 42v36h-82v109h155v-137zM488 -28q0 -109 -125 -109h-23v59q75 2 75 42v36h-82v109h155v-137z"/>
<glyph glyph-name="dagger" horiz-adv-x="450" unicode="†" d="M412 476h-147l24 -548h-130l21 548h-151v101h146l-18 216h132l-20 -216h143v-101z"/>
<glyph glyph-name="daggerdbl" horiz-adv-x="477" unicode="‡" d="M422 140h-133l10 -212h-130l8 212h-138v101h141l10 235h-151v101h146l-18 216h132l-20 -216h143v-101h-147l10 -235h137v-101z"/>
<glyph glyph-name="bullet" horiz-adv-x="532" unicode="•" d="M448 355q0 -71 -55 -123q-51 -49 -126 -49t-127 49q-55 52 -55 123t55 123q51 49 127 49q75 0 126 -49q55 -52 55 -123z"/>
<glyph glyph-name="ellipsis" horiz-adv-x="1000" unicode="…" d="M244 0h-155v109h155v-109zM577 0h-155v109h155v-109zM911 0h-155v109h155v-109z"/>
<glyph glyph-name="perthousand" horiz-adv-x="1573" unicode="‰" d="M343 542q0 41 -27 69t-67 28q-41 0 -68.5 -28t-27.5 -69t28 -69t68 -28t67 28t27 69zM932 183q0 41 -27.5 69t-67.5 28q-41 0 -68.5 -28t-27.5 -69t28 -69t68 -28t67.5 28t27.5 69zM1405 183q0 41 -27 69t-67 28q-41 0 -68.5 -28t-27.5 -69t28 -69t68 -28t67 28t27 69z M450 542q0 -81 -60 -139q-59 -57 -141 -57q-84 0 -142 56q-60 58 -60 140t60 140q59 57 142 57q82 0 141 -57q60 -58 60 -140zM934 724l-646 -734h-137l647 734h136zM1039 183q0 -82 -60 -140q-59 -57 -142 -57t-142 57q-60 58 -60 140t60 140q59 57 142 57t142 -57 q60 -58 60 -140zM1512 183q0 -82 -60 -140q-59 -57 -141 -57q-83 0 -142 57q-60 58 -60 140t60 140q59 57 142 57q82 0 141 -57q60 -58 60 -140z"/>
<glyph glyph-name="guilsinglleft" horiz-adv-x="460" unicode="‹" d="M387 484l-161 -163l159 -162h-147l-165 162l169 163h145z"/>
<glyph glyph-name="guilsinglright" horiz-adv-x="460" unicode="›" d="M387 321l-165 -162h-147l159 162l-161 163h145z"/>
<glyph glyph-name="fraction" horiz-adv-x="294" unicode="⁄" d="M539 724l-647 -734h-137l648 734h136z"/>
<glyph glyph-name="Euro" horiz-adv-x="932" unicode="€" d="M602 243h-327q33 -67 102 -105.5t165 -38.5q170 0 266 113l91 -55q-68 -88 -155.5 -127.5t-207.5 -39.5q-140 0 -246.5 67t-143.5 186h-112v91h95q-1 9 -1 27q0 29 2 43h-96v91h118q43 110 148 173.5t236 63.5q239 0 367 -182l-96 -38q-97 113 -271 113q-81 0 -147 -35 t-103 -95h316v-91h-350q-3 -21 -3 -43q0 -18 1 -27h352v-91z"/>
<glyph glyph-name="litre" horiz-adv-x="679" unicode="ℓ" d="M424 585q0 55 -40 55q-31 0 -45 -33.5t-14 -75.5v-131q4 4 18.5 21.5t19.5 22.5q61 78 61 141zM581 71q-35 -33 -89.5 -59.5t-119.5 -26.5q-79 0 -121 45q-40 43 -40 120v68q-12 -11 -36.5 -32t-37.5 -32q-6 11 -19 32.5t-20 32.5q43 36 113 97v182q0 45 9 84.5t28.5 73 t55 53t83.5 19.5q62 0 94.5 -36t32.5 -87q0 -120 -139 -249q-28 -28 -50 -52v-132q0 -100 86 -100q60 0 122 58q8 -10 24 -29.5t24 -29.5z"/>
<glyph glyph-name="trademark" horiz-adv-x="409" unicode="™" d="M153 681h-51v-133h-41v133h-51v33h143v-33zM376 548h-39v125l-46 -125h-18l-47 125v-125h-40v166h58l39 -100l36 100h57v-166z"/>
<glyph glyph-name="Omega" horiz-adv-x="961" unicode="Ω" d="M915 0h-343v102q42 25 73 49t65 59.5t52.5 80.5t18.5 96q0 85 -79 150.5t-216 65.5q-124 0 -213 -59.5t-89 -160.5q0 -41 14.5 -80t34.5 -66t51.5 -55.5t53.5 -44t53 -35.5v-102h-345v102h226q-94 41 -158.5 118t-64.5 185q0 136 119 221.5t312 85.5q110 0 195.5 -26 t136.5 -69.5t77 -96.5t26 -112q0 -101 -67 -183.5t-169 -122.5h236v-102z"/>
<glyph glyph-name="estimated" horiz-adv-x="809" unicode="℮" d="M622 437v235q-39 34 -98 59.5t-116 25.5q-138 0 -222 -86v-234h436zM789 393h-603v-273q93 -88 213 -88q49 0 91 11t69.5 26t55.5 42t43.5 46.5t38.5 53.5q4 -2 18.5 -11.5t22.5 -14.5q-38 -61 -78 -101t-107 -68t-154 -28q-110 0 -198 56.5t-135.5 149t-47.5 201.5 q0 112 46 203.5t136 147t208 55.5q114 0 202 -56t133.5 -146.5t45.5 -198.5v-7z"/>
<glyph glyph-name="partialdiff" horiz-adv-x="824" unicode="∂" d="M580 303q-11 42 -49 72.5t-99 30.5q-89 0 -149.5 -55.5t-60.5 -137.5q0 -57 37 -93t97 -36q78 0 137 58.5t87 160.5zM727 449q0 -100 -31 -180q-102 -282 -356 -282q-108 0 -176 62.5t-68 158.5q0 57 19 105t49.5 80.5t70 55t80.5 33t81 10.5q145 0 204 -98h3q2 10 2 38 q0 86 -46.5 145.5t-139.5 59.5q-77 0 -142 -43q-6 14 -16.5 41t-15.5 40q28 21 85.5 38.5t122.5 17.5q91 0 155 -41.5t91.5 -103.5t27.5 -137z"/>
<glyph glyph-name="Delta" horiz-adv-x="921" unicode="∆" d="M711 104q-25 48 -105.5 202t-124.5 238q-7 13 -19 62h-5q-15 -46 -23 -59q-38 -74 -115.5 -221.5t-116.5 -221.5h509zM865 0h-809v54q56 108 167.5 323t167.5 323h142q55 -108 165.5 -323t166.5 -323v-54z"/>
<glyph glyph-name="product" horiz-adv-x="1041" unicode="∏" d="M931 -230h-128v820h-566v-820h-128v930h822v-930z"/>
<glyph glyph-name="summation" horiz-adv-x="896" unicode="∑" d="M893 -230h-890v66q428 361 478 403q-76 65 -227 194.5t-226 194.5v72h835v-102h-621q67 -60 201.5 -178.5t202.5 -177.5q-71 -61 -213 -184.5t-213 -185.5h673v-102z"/>
<glyph glyph-name="minus" horiz-adv-x="932" unicode="−" d="M763 256h-594v80h594v-80z"/>
<glyph glyph-name="uni2215" horiz-adv-x="294" unicode="∕" d="M539 724l-647 -734h-137l648 734h136z"/>
<glyph glyph-name="uni2219" horiz-adv-x="465" unicode="∙" d="M310 265h-155v109h155v-109z"/>
<glyph glyph-name="radical" horiz-adv-x="847" unicode="√" d="M785 729q-60 -123 -179.5 -370t-179.5 -371h-57q-34 57 -103 171.5t-104 171.5q-22 -13 -77 -44q-4 10 -12 30.5t-12 30.5q24 13 72.5 37.5t72.5 36.5q37 -62 106 -177t85 -142q44 93 94 198l110 231t94 197h90z"/>
<glyph glyph-name="infinity" horiz-adv-x="1161" unicode="∞" d="M528 292q-39 54 -97.5 85t-116.5 31q-61 0 -96 -32t-35 -85q0 -52 38 -83t97 -31q56 0 111.5 30t98.5 85zM978 290q0 51 -32.5 84.5t-102.5 33.5q-116 0 -209 -116q91 -114 212 -114q67 0 99.5 32t32.5 80zM1074 297q0 -90 -59 -147t-167 -57q-78 0 -146 38.5t-117 105.5 h-2q-46 -62 -118.5 -103t-148.5 -41q-117 0 -173 57t-56 138q0 90 57 147.5t167 57.5q160 0 271 -146h2q47 61 114 103.5t145 42.5q108 0 169.5 -52t61.5 -144z"/>
<glyph glyph-name="integral" horiz-adv-x="671" unicode="∫" d="M578 636q-30 18 -76 18q-48 0 -75.5 -27t-27.5 -74v-593q0 -111 -59 -159.5t-152 -48.5q-74 0 -123 23q5 15 14.5 45t14.5 45q34 -17 76 -17q49 0 76 26t27 76v591q0 108 53.5 158.5t149.5 50.5q78 0 130 -24q-18 -60 -28 -90z"/>
<glyph glyph-name="approxequal" horiz-adv-x="932" unicode="≈" d="M786 201q-41 -46 -85.5 -70.5t-106.5 -24.5q-65 0 -139 37q-76 38 -123 38q-66 0 -130 -75l-57 60q42 47 83.5 71t102.5 24q64 0 141 -36q74 -39 125 -39q64 0 131 75zM786 425q-41 -46 -85.5 -70.5t-106.5 -24.5q-65 0 -139 37q-76 38 -123 38q-66 0 -130 -75l-57 60 q42 47 83.5 71t102.5 24q64 0 141 -36q74 -39 125 -39q64 0 131 75z"/>
<glyph glyph-name="notequal" horiz-adv-x="932" unicode="≠" d="M763 144h-356l-81 -138h-89l81 138h-149v80h203l89 146h-292v80h345l87 145h89l-88 -145h161v-80h-214l-88 -146h302v-80z"/>
<glyph glyph-name="lessequal" horiz-adv-x="932" unicode="≤" d="M763 137l-594 222v61l594 222v-87l-450 -163v-3l450 -166v-86zM763 0h-594v80h594v-80z"/>
<glyph glyph-name="greaterequal" horiz-adv-x="932" unicode="≥" d="M763 358l-594 -221v86l450 164v2l-450 166v87l594 -223v-61zM763 0h-594v80h594v-80z"/>
<glyph glyph-name="lozenge" horiz-adv-x="835" unicode="◊" d="M661 349q-81 91 -243 271q-164 -180 -246 -271q164 -180 246 -271q81 91 243 271zM769 350q-54 -59 -161 -175t-160 -175h-61q-54 58 -160.5 174.5t-160.5 174.5l321 351h61q53 -58 160 -174.5t161 -175.5z"/>
<glyph glyph-name="A.sc" horiz-adv-x="845" unicode="" d="M569 241l-146 272l-147 -272h293zM832 0h-132l-71 132h-413l-71 -132h-132l335 615h149z"/>
<glyph glyph-name="AE.sc" horiz-adv-x="1217" unicode="" d="M505 241v268l-195 -268h195zM1167 0h-662v132h-274l-98 -132h-120l447 615h684v-109h-519v-132h361v-109h-361v-156h542v-109z"/>
<glyph glyph-name="Aacute.sc" horiz-adv-x="845" unicode="" d="M547 835l-124 -166h-61l69 166h116zM569 241l-146 272l-147 -272h293zM832 0h-132l-71 132h-413l-71 -132h-132l335 615h149z"/>
<glyph glyph-name="Acircumflex.sc" horiz-adv-x="845" unicode="" d="M616 668h-102l-91 99l-91 -99h-102l153 166h80zM569 241l-146 272l-147 -272h293zM832 0h-132l-71 132h-413l-71 -132h-132l335 615h149z"/>
<glyph glyph-name="Adieresis.sc" horiz-adv-x="845" unicode="" d="M387 746q0 -25 -19 -43.5t-45 -18.5t-44.5 18t-18.5 44t18.5 45t44.5 19t45 -19t19 -45zM588 746q0 -25 -19 -43.5t-45 -18.5t-44.5 18t-18.5 44t18.5 45t44.5 19t45 -19t19 -45zM569 241l-146 272l-147 -272h293zM832 0h-132l-71 132h-413l-71 -132h-132l335 615h149z "/>
<glyph glyph-name="Agrave.sc" horiz-adv-x="845" unicode="" d="M486 669h-61l-124 166h116zM569 241l-146 272l-147 -272h293zM832 0h-132l-71 132h-413l-71 -132h-132l335 615h149z"/>
<glyph glyph-name="Aring.sc" horiz-adv-x="845" unicode="" d="M569 241l-146 272l-147 -272h293zM476 763q0 17 -15 29.5t-38 12.5t-38 -12.5t-15 -29.5t15 -29t38 -12q22 0 37.5 12t15.5 29zM832 0h-132l-71 132h-413l-71 -132h-132l335 615h149zM536 763q0 -39 -32.5 -65.5t-80.5 -26.5t-80 26.5t-32 65.5t32 66t80 27t80.5 -27 t32.5 -66z"/>
<glyph glyph-name="Atilde.sc" horiz-adv-x="845" unicode="" d="M593 769q-45 -84 -103 -84q-30 0 -74 18.5t-55 18.5q-25 0 -53 -48l-59 46q35 41 59 59.5t49 18.5t68 -19t60 -19q16 0 27.5 10.5t26.5 35.5zM569 241l-146 272l-147 -272h293zM832 0h-132l-71 132h-413l-71 -132h-132l335 615h149z"/>
<glyph glyph-name="B.sc" horiz-adv-x="916" unicode="" d="M605 109q57 0 88.5 19t31.5 51q0 36 -28.5 56.5t-81.5 20.5h-390v-147h380zM613 365q42 0 66.5 19.5t24.5 52.5q0 32 -23 50.5t-64 18.5h-392v-141h388zM748 318q98 -50 98 -152q0 -81 -61.5 -123.5t-179.5 -42.5h-500v615h506q98 0 154 -47t56 -124q0 -78 -73 -126z"/>
<glyph glyph-name="C.sc" horiz-adv-x="904" unicode="" d="M841 467l-110 -38q-96 98 -251 98q-131 0 -209 -60.5t-78 -156.5q0 -99 78 -159t211 -60q154 0 251 101l103 -55q-72 -80 -157 -116.5t-200 -36.5q-184 0 -297.5 91.5t-113.5 234.5q0 148 129 243q113 82 275 82q229 0 369 -168z"/>
<glyph glyph-name="Ccedilla.sc" horiz-adv-x="904" unicode="" d="M841 467l-110 -38q-98 98 -259 98q-124 0 -201.5 -61t-77.5 -156q0 -97 76.5 -158t202.5 -61q84 0 146 23.5t115 77.5l103 -55q-133 -152 -347 -153l-19 -30q80 -8 80 -76q0 -37 -29.5 -60.5t-79.5 -23.5q-48 0 -96 19l19 36q32 -12 52 -12q22 0 36.5 11.5t14.5 26.5 q0 11 -7 17.5t-18 6.5q-15 0 -27 -17l-31 14q23 40 48 89q-173 18 -268.5 105t-95.5 220q0 148 129 243q113 82 275 82q226 0 369 -168z"/>
<glyph glyph-name="D.sc" horiz-adv-x="920" unicode="" d="M531 109q88 0 144.5 55t56.5 140q0 91 -60 146.5t-160 55.5h-287v-397h306zM503 615q162 0 260 -85t98 -218q0 -68 -24.5 -121t-78.5 -111q-29 -32 -95 -56t-140 -24h-418v615h398z"/>
<glyph glyph-name="Eth.sc" horiz-adv-x="920" unicode="" d="M530 109q88 0 144.5 55t56.5 140q0 91 -60 146.5t-160 55.5h-287v-139h287v-109h-287v-149h306zM502 615q162 0 260 -85t98 -218q0 -134 -104 -232q-31 -31 -98.5 -55.5t-135.5 -24.5h-418v258h-50v109h50v248h398z"/>
<glyph glyph-name="E.sc" horiz-adv-x="817" unicode="" d="M767 0h-662v615h639v-109h-519v-132h361v-109h-361v-156h542v-109z"/>
<glyph glyph-name="Eacute.sc" horiz-adv-x="817" unicode="" d="M539 835l-124 -166h-61l69 166h116zM767 0h-662v615h639v-109h-519v-132h361v-109h-361v-156h542v-109z"/>
<glyph glyph-name="Ecircumflex.sc" horiz-adv-x="817" unicode="" d="M608 668h-102l-91 99l-91 -99h-102l153 166h80zM767 0h-662v615h639v-109h-519v-132h361v-109h-361v-156h542v-109z"/>
<glyph glyph-name="Edieresis.sc" horiz-adv-x="817" unicode="" d="M379 746q0 -25 -19 -43.5t-45 -18.5t-44.5 18t-18.5 44t18.5 45t44.5 19t45 -19t19 -45zM580 746q0 -25 -19 -43.5t-45 -18.5t-44.5 18t-18.5 44t18.5 45t44.5 19t45 -19t19 -45zM767 0h-662v615h639v-109h-519v-132h361v-109h-361v-156h542v-109z"/>
<glyph glyph-name="Egrave.sc" horiz-adv-x="817" unicode="" d="M478 669h-61l-124 166h116zM767 0h-662v615h639v-109h-519v-132h361v-109h-361v-156h542v-109z"/>
<glyph glyph-name="F.sc" horiz-adv-x="769" unicode="" d="M744 506h-519v-132h361v-109h-361v-265h-120v615h639v-109z"/>
<glyph glyph-name="G.sc" horiz-adv-x="941" unicode="" d="M873 337v-19q0 -150 -109.5 -243t-291.5 -93q-163 0 -275 81q-129 95 -129 246q0 149 129 244q113 83 282 83q204 0 338 -143l-113 -56q-94 90 -232 90q-122 0 -201 -62t-79 -156q0 -97 77 -158t203 -61q189 0 251 138h-277v109h427z"/>
<glyph glyph-name="H.sc" horiz-adv-x="925" unicode="" d="M820 0h-120v265h-475v-265h-120v615h120v-241h475v241h120v-615z"/>
<glyph glyph-name="I.sc" horiz-adv-x="330" unicode="" d="M225 0h-120v615h120v-615z"/>
<glyph glyph-name="Iacute.sc" horiz-adv-x="330" unicode="" d="M289 835l-124 -166h-61l69 166h116zM225 0h-120v615h120v-615z"/>
<glyph glyph-name="Icircumflex.sc" horiz-adv-x="330" unicode="" d="M358 668h-102l-91 99l-91 -99h-102l153 166h80zM225 0h-120v615h120v-615z"/>
<glyph glyph-name="Idieresis.sc" horiz-adv-x="330" unicode="" d="M129 746q0 -25 -19 -43.5t-45 -18.5t-44.5 18t-18.5 44t18.5 45t44.5 19t45 -19t19 -45zM330 746q0 -25 -19 -43.5t-45 -18.5t-44.5 18t-18.5 44t18.5 45t44.5 19t45 -19t19 -45zM225 0h-120v615h120v-615z"/>
<glyph glyph-name="Igrave.sc" horiz-adv-x="330" unicode="" d="M228 669h-61l-124 166h116zM225 0h-120v615h120v-615z"/>
<glyph glyph-name="J.sc" horiz-adv-x="700" unicode="" d="M595 200q0 -106 -73 -162t-214 -56q-260 0 -274 224h121q7 -64 43.5 -90.5t114.5 -26.5q86 0 124 25t38 86v415h120v-415z"/>
<glyph glyph-name="K.sc" horiz-adv-x="849" unicode="" d="M848 0h-155l-293 312l-175 -126v-186h-120v615h120v-301l419 301h177l-328 -236z"/>
<glyph glyph-name="L.sc" horiz-adv-x="725" unicode="" d="M700 0h-595v615h120v-506h475v-109z"/>
<glyph glyph-name="Lslash.sc" horiz-adv-x="725" unicode="" d="M700 0h-595v164l-42 -26v128l42 26v323h120v-251l207 125v-128l-207 -125v-127h475v-109z"/>
<glyph glyph-name="M.sc" horiz-adv-x="1073" unicode="" d="M968 0h-120v510l-3 -4l-309 -419l-308 423l-3 -4v-506h-120v615h180l251 -348l252 348h180v-615z"/>
<glyph glyph-name="N.sc" horiz-adv-x="927" unicode="" d="M822 0h-179l-418 513v-513h-120v615h179l418 -513v513h120v-615z"/>
<glyph glyph-name="Ntilde.sc" horiz-adv-x="927" unicode="" d="M634 769q-45 -84 -103 -84q-30 0 -74 18.5t-55 18.5q-24 0 -53 -48l-59 46q35 41 59 59.5t49 18.5t68 -19t60 -19q16 0 27.5 10.5t26.5 35.5zM822 0h-179l-418 513v-513h-120v615h179l418 -513v513h120v-615z"/>
<glyph glyph-name="O.sc" horiz-adv-x="945" unicode="" d="M752 309q0 95 -78 156.5t-201 61.5q-124 0 -202.5 -62t-78.5 -156q0 -98 77 -158.5t204 -60.5q126 0 202.5 60.5t76.5 158.5zM877 309q0 -151 -129 -246q-110 -81 -275 -81q-164 0 -276 81q-129 95 -129 246q0 150 130 244q114 83 275 83q160 0 274 -83q130 -95 130 -244 z"/>
<glyph glyph-name="OE.sc" horiz-adv-x="1318" unicode="" d="M606 137v334q0 35 -63 35h-83q-121 0 -194 -55.5t-73 -143.5q0 -92 70.5 -145t196.5 -53h76q70 0 70 28zM1268 0h-805q-160 0 -267 73q-128 88 -128 234q0 145 127 233q107 75 265 75h785v-109h-519v-132h361v-109h-361v-156h542v-109z"/>
<glyph glyph-name="Oacute.sc" horiz-adv-x="945" unicode="" d="M597 835l-124 -166h-61l69 166h116zM752 309q0 95 -78 156.5t-201 61.5q-124 0 -202.5 -62t-78.5 -156q0 -98 77 -158.5t204 -60.5q126 0 202.5 60.5t76.5 158.5zM877 309q0 -151 -129 -246q-110 -81 -275 -81q-164 0 -276 81q-129 95 -129 246q0 150 130 244 q114 83 275 83q160 0 274 -83q130 -95 130 -244z"/>
<glyph glyph-name="Ocircumflex.sc" horiz-adv-x="945" unicode="" d="M666 668h-102l-91 99l-91 -99h-102l153 166h80zM752 309q0 95 -78 156.5t-201 61.5q-124 0 -202.5 -62t-78.5 -156q0 -98 77 -158.5t204 -60.5q126 0 202.5 60.5t76.5 158.5zM877 309q0 -151 -129 -246q-110 -81 -275 -81q-164 0 -276 81q-129 95 -129 246q0 150 130 244 q114 83 275 83q160 0 274 -83q130 -95 130 -244z"/>
<glyph glyph-name="Odieresis.sc" horiz-adv-x="945" unicode="" d="M437 746q0 -25 -19 -43.5t-45 -18.5t-44.5 18t-18.5 44t18.5 45t44.5 19t45 -19t19 -45zM638 746q0 -25 -19 -43.5t-45 -18.5t-44.5 18t-18.5 44t18.5 45t44.5 19t45 -19t19 -45zM752 309q0 95 -78 156.5t-201 61.5q-124 0 -202.5 -62t-78.5 -156q0 -98 77 -158.5 t204 -60.5q126 0 202.5 60.5t76.5 158.5zM877 309q0 -151 -129 -246q-110 -81 -275 -81q-164 0 -276 81q-129 95 -129 246q0 150 130 244q114 83 275 83q160 0 274 -83q130 -95 130 -244z"/>
<glyph glyph-name="Ograve.sc" horiz-adv-x="945" unicode="" d="M536 669h-61l-124 166h116zM752 309q0 95 -78 156.5t-201 61.5q-124 0 -202.5 -62t-78.5 -156q0 -98 77 -158.5t204 -60.5q126 0 202.5 60.5t76.5 158.5zM877 309q0 -151 -129 -246q-110 -81 -275 -81q-164 0 -276 81q-129 95 -129 246q0 150 130 244q114 83 275 83 q160 0 274 -83q130 -95 130 -244z"/>
<glyph glyph-name="Oslash.sc" horiz-adv-x="945" unicode="" d="M589 509q-60 18 -116 18q-124 0 -202.5 -62t-78.5 -156q0 -102 91 -168zM349 110q57 -20 124 -20q126 0 202.5 60.5t76.5 158.5q0 103 -98 170zM727 566q150 -95 150 -257q0 -151 -129 -246q-110 -81 -275 -81q-99 0 -198 39l-55 -66h-92l83 99q-143 95 -143 255 q0 150 130 244q114 83 275 83q93 0 191 -37l47 55h91z"/>
<glyph glyph-name="Otilde.sc" horiz-adv-x="945" unicode="" d="M643 769q-45 -84 -103 -84q-30 0 -74 18.5t-55 18.5q-25 0 -53 -48l-59 46q35 41 59 59.5t49 18.5t68 -19t60 -19q16 0 27.5 10.5t26.5 35.5zM752 309q0 95 -78 156.5t-201 61.5q-124 0 -202.5 -62t-78.5 -156q0 -98 77 -158.5t204 -60.5q126 0 202.5 60.5t76.5 158.5z M877 309q0 -151 -129 -246q-110 -81 -275 -81q-164 0 -276 81q-129 95 -129 246q0 150 130 244q114 83 275 83q160 0 274 -83q130 -95 130 -244z"/>
<glyph glyph-name="P.sc" horiz-adv-x="836" unicode="" d="M584 335q109 0 109 83q0 46 -28 67t-88 21h-352v-171h359zM602 615q98 0 156 -53t58 -142q0 -93 -60.5 -143.5t-173.5 -50.5h-357v-226h-120v615h497z"/>
<glyph glyph-name="Thorn.sc" horiz-adv-x="836" unicode="" d="M584 272q109 0 109 83q0 46 -28 67t-88 21h-352v-171h359zM602 552q98 0 156 -53t58 -142q0 -93 -60.5 -143.5t-173.5 -50.5h-357v-163h-120v615h120v-63h377z"/>
<glyph glyph-name="Q.sc" horiz-adv-x="945" unicode="" d="M614 116q138 59 138 193q0 95 -78 157t-201 62q-124 0 -202.5 -62t-78.5 -157q0 -98 76.5 -158.5t204.5 -60.5h18l-68 72l115 34zM582 -7q-60 -11 -109 -11q-163 0 -276 82q-129 94 -129 245t129 245q112 83 276 83q163 0 275 -83q129 -95 129 -245q0 -185 -182 -278 l77 -84l-114 -35z"/>
<glyph glyph-name="R.sc" horiz-adv-x="894" unicode="" d="M584 335q109 0 109 83q0 46 -28 67t-88 21h-352v-171h359zM829 0h-138l-161 226h-305v-226h-120v615h497q98 0 156 -53t58 -142q0 -74 -39 -122.5t-114 -64.5z"/>
<glyph glyph-name="S.sc" horiz-adv-x="814" unicode="" d="M662 463q-120 63 -261 63q-205 0 -205 -73q0 -14 6 -24t20.5 -17t30 -11t43.5 -7t52 -5t63.5 -5t71.5 -6q151 -15 218.5 -56t67.5 -129q0 -99 -88.5 -153t-256.5 -54q-237 0 -379 108l65 85q127 -89 312 -89q104 0 161 26.5t57 70.5q0 50 -70 69q-30 8 -71.5 11.5 t-102.5 6t-104 6.5q-114 11 -168 49t-54 111q0 88 86.5 139.5t242.5 51.5q208 0 337 -90z"/>
<glyph glyph-name="Scaron.sc" horiz-adv-x="814" unicode="" d="M601 834l-153 -166h-80l-153 166h102l91 -99l91 99h102zM662 463q-120 63 -261 63q-205 0 -205 -73q0 -14 6 -24t20.5 -17t30 -11t43.5 -7t52 -5t63.5 -5t71.5 -6q151 -15 218.5 -56t67.5 -129q0 -99 -88.5 -153t-256.5 -54q-237 0 -379 108l65 85q127 -89 312 -89 q104 0 161 26.5t57 70.5q0 50 -70 69q-30 8 -71.5 11.5t-102.5 6t-104 6.5q-114 11 -168 49t-54 111q0 88 86.5 139.5t242.5 51.5q208 0 337 -90z"/>
<glyph glyph-name="T.sc" horiz-adv-x="758" unicode="" d="M733 506h-294v-506h-120v506h-294v109h708v-109z"/>
<glyph glyph-name="U.sc" horiz-adv-x="911" unicode="" d="M813 202q0 -97 -97 -158.5t-260 -61.5q-164 0 -261 61.5t-97 158.5v413h120v-389q0 -66 60.5 -101t177.5 -35q116 0 176.5 35t60.5 101v389h120v-413z"/>
<glyph glyph-name="Uacute.sc" horiz-adv-x="911" unicode="" d="M580 835l-124 -166h-61l69 166h116zM813 202q0 -97 -97 -158.5t-260 -61.5q-164 0 -261 61.5t-97 158.5v413h120v-389q0 -66 60.5 -101t177.5 -35q116 0 176.5 35t60.5 101v389h120v-413z"/>
<glyph glyph-name="Ucircumflex.sc" horiz-adv-x="911" unicode="" d="M649 668h-102l-91 99l-91 -99h-102l153 166h80zM813 202q0 -97 -97 -158.5t-260 -61.5q-164 0 -261 61.5t-97 158.5v413h120v-389q0 -66 60.5 -101t177.5 -35q116 0 176.5 35t60.5 101v389h120v-413z"/>
<glyph glyph-name="Udieresis.sc" horiz-adv-x="911" unicode="" d="M420 746q0 -25 -19 -43.5t-45 -18.5t-44.5 18t-18.5 44t18.5 45t44.5 19t45 -19t19 -45zM621 746q0 -25 -19 -43.5t-45 -18.5t-44.5 18t-18.5 44t18.5 45t44.5 19q25 0 44.5 -19t19.5 -45zM813 202q0 -97 -97 -158.5t-260 -61.5q-164 0 -261 61.5t-97 158.5v413h120v-389 q0 -66 60.5 -101t177.5 -35q116 0 176.5 35t60.5 101v389h120v-413z"/>
<glyph glyph-name="Ugrave.sc" horiz-adv-x="911" unicode="" d="M519 669h-61l-124 166h116zM813 202q0 -97 -97 -158.5t-260 -61.5q-164 0 -261 61.5t-97 158.5v413h120v-389q0 -66 60.5 -101t177.5 -35q116 0 176.5 35t60.5 101v389h120v-413z"/>
<glyph glyph-name="V.sc" horiz-adv-x="828" unicode="" d="M823 615l-340 -615h-138l-340 615h133l276 -511l276 511h133z"/>
<glyph glyph-name="W.sc" horiz-adv-x="1040" unicode="" d="M1020 615l-209 -615h-144l-147 514l-147 -514h-144l-209 615h133l148 -511l147 511h144l147 -511l148 511h133z"/>
<glyph glyph-name="X.sc" horiz-adv-x="818" unicode="" d="M805 0h-151l-245 241l-245 -241h-151l320 312l-309 303h151l234 -232l234 232h151l-309 -303z"/>
<glyph glyph-name="Y.sc" horiz-adv-x="828" unicode="" d="M823 615l-350 -373v-242h-120v242l-348 373h146l263 -280l263 280h146z"/>
<glyph glyph-name="Yacute.sc" horiz-adv-x="828" unicode="" d="M538 835l-124 -166h-61l69 166h116zM823 615l-350 -373v-242h-120v242l-348 373h146l263 -280l263 280h146z"/>
<glyph glyph-name="Ydieresis.sc" horiz-adv-x="828" unicode="" d="M378 746q0 -25 -19 -43.5t-45 -18.5t-44.5 18t-18.5 44t18.5 45t44.5 19t45 -19t19 -45zM579 746q0 -25 -19 -43.5t-45 -18.5t-44.5 18t-18.5 44t18.5 45t44.5 19q25 0 44.5 -19t19.5 -45zM823 615l-350 -373v-242h-120v242l-348 373h146l263 -280l263 280h146z"/>
<glyph glyph-name="Z.sc" horiz-adv-x="767" unicode="" d="M727 0h-687v109l492 397h-485v109h657v-109l-493 -397h516v-109z"/>
<glyph glyph-name="Zcaron.sc" horiz-adv-x="767" unicode="" d="M578 834l-153 -166h-80l-153 166h102l91 -99l91 99h102zM727 0h-687v109l492 397h-485v109h657v-109l-493 -397h516v-109z"/>
<glyph glyph-name="germandbls.sc" horiz-adv-x="1583" unicode="" d="M662 463q-120 63 -261 63q-205 0 -205 -73q0 -14 6 -24t20.5 -17t30 -11t43.5 -7t52 -5t63.5 -5t71.5 -6q151 -15 218.5 -56t67.5 -129q0 -99 -88.5 -153t-256.5 -54q-237 0 -379 108l65 85q127 -89 312 -89q104 0 161 26.5t57 70.5q0 50 -70 69q-30 8 -71.5 11.5 t-102.5 6t-104 6.5q-114 11 -168 49t-54 111q0 88 86.5 139.5t242.5 51.5q208 0 337 -90zM1431 463q-120 63 -262 63q-204 0 -204 -73q0 -14 6 -24t20 -17t30 -11t43.5 -7t51.5 -5t64 -5t72 -6q150 -15 218 -56t68 -129q0 -98 -89 -152.5t-256 -54.5q-237 0 -379 108l65 85 q127 -89 312 -89q104 0 161 26.5t57 70.5q0 50 -70 69q-30 8 -71.5 11.5t-102.5 6t-104 6.5q-114 11 -168 49t-54 111q0 88 86 139.5t242 51.5q207 0 337 -90z"/>
<glyph glyph-name="f_i.sc" horiz-adv-x="1099" unicode="" d="M744 506h-519v-132h361v-109h-361v-265h-120v615h639v-109zM994 0h-120v615h120v-615z"/>
<glyph glyph-name="f_l.sc" horiz-adv-x="1494" unicode="" d="M744 506h-519v-132h361v-109h-361v-265h-120v615h639v-109zM1469 0h-595v615h120v-506h475v-109z"/>
<glyph glyph-name="zero.sc" horiz-adv-x="801" unicode="" d="M614 306q0 91 -60 149.5t-154 58.5t-153.5 -58t-59.5 -150q0 -90 60.5 -147.5t154.5 -57.5t153 57.5t59 147.5zM735 306q0 -82 -39 -152t-109 -112q-86 -52 -187 -52t-187 52q-69 42 -108 112t-39 152q0 132 101 228q95 90 235 90q141 0 234 -90q99 -94 99 -228z"/>
<glyph glyph-name="one.sc" horiz-adv-x="391" unicode="" d="M267 0h-120v494l-98 -41v105q55 20 99 57h119v-615z"/>
<glyph glyph-name="two.sc" horiz-adv-x="776" unicode="" d="M700 0h-643q10 164 121 245q17 12 36.5 23t32 17.5t37.5 15t32 11t37 10.5t32 9q115 32 141 49q30 19 30 48q0 86 -157 86q-132 0 -240 -85l-78 80q151 114 320 114q129 0 206.5 -54.5t77.5 -140.5q0 -76 -48 -116t-158 -68q-12 -3 -52.5 -13t-52 -13.5t-42 -12.5 t-43 -16.5l-32.5 -19.5t-32.5 -27t-23.5 -33h499v-109z"/>
<glyph glyph-name="three.sc" horiz-adv-x="780" unicode="" d="M584 325q109 -55 109 -146q0 -89 -86.5 -138.5t-249.5 -49.5q-104 0 -184 31t-148 100l76 75q114 -97 258 -97q94 0 149.5 26t55.5 66q0 77 -234 77q-38 0 -59 -1v100q21 -1 60 -1q205 0 205 80q0 67 -159 67q-130 0 -235 -70l-73 76q152 103 309 103q134 0 209 -46.5 t75 -125.5q0 -74 -78 -126z"/>
<glyph glyph-name="four.sc" horiz-adv-x="748" unicode="" d="M441 225v268l-285 -268h285zM702 116h-141v-116h-120v116h-414v108l414 391h120v-390h141v-109z"/>
<glyph glyph-name="five.sc" horiz-adv-x="786" unicode="" d="M211 368q102 35 198 35q146 0 231 -56t85 -146q0 -93 -83.5 -151.5t-224.5 -58.5q-210 0 -355 131l94 69q110 -90 259 -90q90 0 139 27t49 73q0 48 -54 77t-150 29q-113 0 -222 -55l-98 52l100 311h500v-109h-418z"/>
<glyph glyph-name="six.sc" horiz-adv-x="785" unicode="" d="M213 196q25 -45 80.5 -70.5t131.5 -25.5q82 0 129 25.5t47 66.5q0 43 -48 71.5t-128 28.5q-138 0 -212 -96zM184 298q97 95 245 95q128 0 211 -56t83 -138q0 -92 -82 -150.5t-216 -58.5q-163 0 -262.5 87.5t-99.5 226.5q0 107 61 186q50 65 126 100t169 35 q149 0 282 -120l-89 -66q-74 75 -195 75q-100 0 -166.5 -58t-66.5 -145v-13z"/>
<glyph glyph-name="seven.sc" horiz-adv-x="714" unicode="" d="M669 506l-406 -506h-140l407 506h-496v109h635v-109z"/>
<glyph glyph-name="eight.sc" horiz-adv-x="795" unicode="" d="M607 185q0 43 -51 62.5t-158 19.5q-108 0 -159 -19t-51 -63q0 -84 210 -84q209 0 209 84zM569 444q0 70 -171 70q-172 0 -172 -70q0 -77 172 -77q171 0 171 77zM613 324q126 -52 126 -147q0 -88 -88 -137.5t-253 -49.5t-253.5 49.5t-88.5 137.5q0 95 126 147 q-84 48 -84 121q0 83 78 130t220 47q144 0 222.5 -47t78.5 -130q0 -73 -84 -121z"/>
<glyph glyph-name="nine.sc" horiz-adv-x="785" unicode="" d="M571 418q-58 94 -216 94q-82 0 -127.5 -26t-45.5 -70q0 -41 45.5 -67t124.5 -26q149 0 219 95zM600 317q-101 -96 -257 -96q-124 0 -203 55.5t-79 137.5q0 95 82 152.5t221 57.5q163 0 261.5 -88t98.5 -227q0 -106 -62 -185q-51 -64 -128.5 -99.5t-170.5 -35.5 q-186 0 -283 94l84 82q92 -67 191 -67q111 0 178.5 57t67.5 147q0 7 -1 15z"/>
</font>
</defs>
</svg>
